<svg width="25" height="24" viewBox="0 0 25 24" fill="none" xmlns="http://www.w3.org/2000/svg">
<path d="M10.6735 2.10426C9.27194 1.65055 7.74831 2.28165 7.07806 3.59355L6.27228 5.17072C6.17654 5.35812 6.02413 5.51053 5.83673 5.60627L4.25956 6.41205C2.94766 7.0823 2.31656 8.60593 2.77027 10.0075L3.31573 11.6925C3.38054 11.8927 3.38054 12.1083 3.31573 12.3085L2.77027 13.9935C2.31656 15.3951 2.94766 16.9187 4.25956 17.589L5.83673 18.3947C6.02413 18.4905 6.17654 18.6429 6.27228 18.8303L7.07806 20.4075C7.74831 21.7194 9.27194 22.3505 10.6735 21.8968L12.3585 21.3513C12.5587 21.2865 12.7743 21.2865 12.9745 21.3513L14.6595 21.8968C16.0611 22.3505 17.5847 21.7194 18.255 20.4075L19.0607 18.8303C19.1565 18.6429 19.3089 18.4905 19.4963 18.3947L21.0735 17.589C22.3854 16.9187 23.0165 15.3951 22.5628 13.9935L22.0173 12.3085C21.9525 12.1083 21.9525 11.8927 22.0173 11.6925L22.5628 10.0075C23.0165 8.60593 22.3854 7.0823 21.0735 6.41205L19.4963 5.60627C19.3089 5.51053 19.1565 5.35812 19.0607 5.17072L18.255 3.59355C17.5847 2.28165 16.0611 1.65055 14.6595 2.10426L12.9745 2.64972C12.7743 2.71452 12.5587 2.71453 12.3585 2.64972L10.6735 2.10426ZM7.42627 11.7578L8.84049 10.3435L11.6689 13.172L17.3258 7.51514L18.74 8.92935L11.6689 16.0004L7.42627 11.7578Z" fill="white"/>
</svg>
