<svg width="19" height="23" viewBox="0 0 19 23" fill="none" xmlns="http://www.w3.org/2000/svg">
<path d="M9.93121 6.66644C9.05521 6.66644 7.69919 5.67044 6.27119 5.70644C4.38719 5.73044 2.65919 6.79843 1.68719 8.49043C-0.26881 11.8865 1.18319 16.9025 3.09119 19.6625C4.02719 21.0065 5.13119 22.5185 6.59519 22.4705C7.99919 22.4105 8.52721 21.5585 10.2312 21.5585C11.9232 21.5585 12.4032 22.4705 13.8912 22.4345C15.4032 22.4105 16.3632 21.0665 17.2872 19.7105C18.3552 18.1505 18.7992 16.6385 18.8232 16.5545C18.7872 16.5425 15.8832 15.4265 15.8472 12.0665C15.8232 9.25843 18.1392 7.91444 18.2472 7.85444C16.9272 5.92244 14.8992 5.70644 14.1912 5.65844C12.3432 5.51444 10.7952 6.66644 9.93121 6.66644ZM13.0512 3.83444C13.8312 2.89844 14.3472 1.59044 14.2032 0.294434C13.0872 0.342434 11.7432 1.03844 10.9392 1.97444C10.2192 2.80244 9.59521 4.13444 9.76321 5.40644C10.9992 5.50244 12.2712 4.77044 13.0512 3.83444Z" fill="#363636"/>
</svg>
