<svg width="32" height="36" viewBox="0 0 32 36" fill="none" xmlns="http://www.w3.org/2000/svg">
<path d="M13.2288 32.4001C13.5096 32.8866 13.9136 33.2905 14.4 33.5713C14.8865 33.8522 15.4383 34 16 34C16.5617 34 17.1135 33.8522 17.5999 33.5713C18.0864 33.2905 18.4903 32.8866 18.7712 32.4001M2.01813 23.3217C1.80911 23.5508 1.67118 23.8357 1.6211 24.1417C1.57102 24.4478 1.61096 24.7618 1.73606 25.0455C1.86116 25.3293 2.06603 25.5706 2.32574 25.7401C2.58545 25.9095 2.88882 25.9999 3.19894 26.0001H28.799C29.1091 26.0002 29.4126 25.9102 29.6724 25.7411C29.9323 25.5719 30.1374 25.3309 30.2629 25.0473C30.3883 24.7637 30.4286 24.4498 30.379 24.1438C30.3293 23.8377 30.1917 23.5526 29.9831 23.3233C27.855 21.1297 25.599 18.7985 25.599 11.6C25.599 9.05395 24.5876 6.61214 22.7872 4.81179C20.9869 3.01143 18.5451 2 15.999 2C13.4529 2 11.0111 3.01143 9.21074 4.81179C7.41038 6.61214 6.39895 9.05395 6.39895 11.6C6.39895 18.7985 4.14134 21.1297 2.01813 23.3217Z" stroke="#363636" stroke-width="3" stroke-linecap="round" stroke-linejoin="round"/>
</svg>
