<svg width="30" height="26" viewBox="0 0 30 26" fill="none" xmlns="http://www.w3.org/2000/svg">
<path d="M23.1189 1.25532C23.764 1.84365 23.88 2.76686 23.88 2.76686C23.88 2.76686 22.95 2.7361 22.305 2.14777C21.6599 1.55944 21.5439 0.63623 21.5439 0.63623C21.5439 0.63623 22.4739 0.666991 23.1189 1.25532Z" fill="url(#paint0_linear_2292_7024)"/>
<path d="M18.5826 22.9357C18.0272 23.6482 17.9939 24.4896 18.0013 24.4923C17.9991 24.503 19.1666 24.1765 19.6904 23.3907C20.2144 22.6148 19.9592 21.8107 19.9669 21.813C19.9639 21.8206 19.1372 22.2299 18.5826 22.9357Z" fill="url(#paint1_linear_2292_7024)"/>
<path d="M19.4004 25.4027C18.3756 25.2287 17.9935 24.4539 17.9937 24.4609C18.0057 24.4647 19.1038 24.1478 20.0497 24.259C21.0053 24.3753 21.5666 24.9687 21.5666 24.9751C21.5802 24.9781 20.4362 25.5808 19.4004 25.4027Z" fill="url(#paint2_linear_2292_7024)"/>
<path d="M20.6085 22.0451C20.2268 22.8264 20.3639 23.6434 20.3709 23.6448C20.37 23.6556 21.3961 23.1462 21.7417 22.2981C22.0884 21.4597 21.6939 20.7245 21.7011 20.7256C21.6994 20.7336 20.9903 21.2705 20.6085 22.0451Z" fill="url(#paint3_linear_2292_7024)"/>
<path d="M21.8601 24.2908C20.864 24.2939 20.3571 23.6095 20.3579 23.6164C20.3691 23.6181 21.3316 23.1294 22.25 23.0772C23.1774 23.0284 23.8271 23.5069 23.8279 23.5131C23.8406 23.514 22.8667 24.29 21.8601 24.2908Z" fill="url(#paint4_linear_2292_7024)"/>
<path d="M22.3574 20.8421C22.1407 21.6635 22.4293 22.4297 22.4358 22.43C22.4361 22.4408 23.315 21.7744 23.4908 20.8931C23.6685 20.0212 23.1551 19.3756 23.1618 19.3755C23.1612 19.3835 22.575 20.0272 22.3574 20.8421Z" fill="url(#paint5_linear_2292_7024)"/>
<path d="M23.9773 22.8014C23.0265 22.9736 22.4159 22.3974 22.4175 22.4039C22.4278 22.4039 23.2494 21.7681 24.1235 21.5599C25.006 21.3536 25.7223 21.7054 25.7238 21.7114C25.7355 21.7102 24.9382 22.6299 23.9773 22.8014Z" fill="url(#paint6_linear_2292_7024)"/>
<path d="M23.8175 19.3736C23.7569 20.2084 24.1771 20.9011 24.1831 20.9004C24.1848 20.9108 24.9104 20.1134 24.9253 19.2261C24.9432 18.3476 24.3311 17.8087 24.3374 17.8076C24.3381 17.8157 23.8799 18.5449 23.8175 19.3736Z" fill="url(#paint7_linear_2292_7024)"/>
<path d="M25.7394 20.9954C24.8512 21.3266 24.1585 20.8727 24.1606 20.8788C24.17 20.8772 24.8456 20.1192 25.6582 19.7646C26.4788 19.4105 27.239 19.6271 27.2412 19.6328C27.2522 19.6298 26.6374 20.6631 25.7394 20.9954Z" fill="url(#paint8_linear_2292_7024)"/>
<path d="M24.975 17.6915C25.0611 18.5152 25.5928 19.115 25.5984 19.1133C25.6013 19.1234 26.1676 18.221 26.0309 17.3526C25.8981 16.4924 25.209 16.0738 25.2147 16.0718C25.2167 16.0797 24.8919 16.8737 24.975 17.6915Z" fill="url(#paint9_linear_2292_7024)"/>
<path d="M27.1313 18.9335C26.323 19.4116 25.5703 19.0907 25.5733 19.0964C25.5817 19.0933 26.106 18.238 26.8397 17.7486C27.581 17.2584 28.3619 17.3351 28.3648 17.3404C28.3749 17.3358 27.9486 18.4531 27.1313 18.9335Z" fill="url(#paint10_linear_2292_7024)"/>
<path d="M25.8202 15.845C26.0432 16.6352 26.6657 17.1262 26.6706 17.1237C26.6749 17.1332 27.0759 16.152 26.7972 15.3254C26.5235 14.5064 25.7789 14.2182 25.7841 14.2153C25.7874 14.2228 25.6011 15.0602 25.8202 15.845Z" fill="url(#paint11_linear_2292_7024)"/>
<path d="M28.1397 16.6763C27.4294 17.2868 26.6394 17.1061 26.6431 17.1113C26.6506 17.107 27.0182 16.1791 27.6554 15.5688C28.2994 14.9566 29.0774 14.892 29.0811 14.8967C29.0902 14.8907 28.8585 16.0621 28.1397 16.6763Z" fill="url(#paint12_linear_2292_7024)"/>
<path d="M26.3389 13.8839C26.6889 14.6202 27.3804 14.99 27.3849 14.9868C27.3906 14.9955 27.6201 13.9617 27.2094 13.1977C26.8048 12.4405 26.0271 12.2893 26.0318 12.2856C26.0363 12.2925 25.9937 13.1523 26.3389 13.8839Z" fill="url(#paint13_linear_2292_7024)"/>
<path d="M28.7495 14.2852C28.1553 15.0117 27.3514 14.9749 27.356 14.9795C27.3624 14.9741 27.5683 13.9985 28.0908 13.2832C28.6195 12.5651 29.3701 12.3612 29.3746 12.3653C29.3827 12.3581 29.3517 13.554 28.7495 14.2852Z" fill="url(#paint14_linear_2292_7024)"/>
<path d="M26.5192 11.8582C26.9857 12.5225 27.7244 12.7621 27.7283 12.7582C27.7354 12.766 27.7874 11.7058 27.2551 11.0231C26.7299 10.3462 25.9421 10.3353 25.9463 10.3311C25.9523 10.3373 26.0586 11.1979 26.5192 11.8582Z" fill="url(#paint15_linear_2292_7024)"/>
<path d="M28.9468 11.822C28.4872 12.6456 27.6934 12.7533 27.6988 12.7571C27.7042 12.7507 27.7429 11.7523 28.1322 10.9502C28.5271 10.1444 29.2256 9.80677 29.2308 9.8101C29.238 9.80189 29.4137 10.9925 28.9468 11.822Z" fill="url(#paint16_linear_2292_7024)"/>
<path d="M26.3494 9.82005C26.9215 10.3961 27.685 10.5 27.6884 10.4957C27.6968 10.5023 27.5652 9.44216 26.922 8.85748C26.2868 8.27736 25.5126 8.40645 25.5161 8.40164C25.5235 8.40683 25.7841 9.24714 26.3494 9.82005Z" fill="url(#paint17_linear_2292_7024)"/>
<path d="M28.7181 9.3473C28.4122 10.2473 27.653 10.4961 27.6591 10.4991C27.6634 10.492 27.5299 9.49537 27.767 8.62679C28.0092 7.75363 28.63 7.29137 28.6361 7.294C28.6421 7.2847 29.0308 8.44029 28.7181 9.3473Z" fill="url(#paint18_linear_2292_7024)"/>
<path d="M25.8173 7.81842C26.484 8.29215 27.2489 8.25852 27.2517 8.25372C27.2616 8.25907 26.9403 7.22536 26.1972 6.75303C25.4631 6.28418 24.7266 6.5494 24.7295 6.54413C24.7383 6.54832 25.1584 7.34678 25.8173 7.81842Z" fill="url(#paint19_linear_2292_7024)"/>
<path d="M28.049 6.92364C27.9159 7.87707 27.2164 8.2603 27.2233 8.26239C27.2266 8.2548 26.9155 7.28479 26.9813 6.37203C27.0515 5.45409 27.5686 4.87971 27.5755 4.88142C27.5806 4.87142 28.1881 5.9623 28.049 6.92364Z" fill="url(#paint20_linear_2292_7024)"/>
<path d="M24.9088 5.90484C25.6588 6.26436 26.4013 6.09459 26.4035 6.0894C26.415 6.09327 25.8979 5.11249 25.0662 4.76498C24.2447 4.41964 23.5704 4.8138 23.5728 4.80822C23.5831 4.81116 24.1678 5.54632 24.9088 5.90484Z" fill="url(#paint21_linear_2292_7024)"/>
<path d="M26.9245 4.61267C26.9842 5.59454 26.3699 6.1019 26.3776 6.10306C26.3798 6.09508 25.8858 5.17644 25.7609 4.24409C25.6395 3.306 26.0262 2.63554 26.0339 2.63631C26.0378 2.62578 26.8703 3.62221 26.9245 4.61267Z" fill="url(#paint22_linear_2292_7024)"/>
<path d="M23.6125 4.13009C24.4337 4.36556 25.1297 4.06461 25.1313 4.05919C25.1442 4.06136 24.4252 3.16008 23.5167 2.94777C22.6195 2.73609 22.033 3.24848 22.0347 3.24267C22.0464 3.24414 22.8011 3.89446 23.6125 4.13009Z" fill="url(#paint23_linear_2292_7024)"/>
<path d="M25.3302 2.47678C25.6025 3.4598 25.0997 4.07773 25.1083 4.07781C25.1093 4.06967 24.4273 3.22712 24.0916 2.3019C23.7588 1.37047 23.9878 0.623458 23.9964 0.623148C23.9992 0.612223 25.0628 1.48453 25.3302 2.47678Z" fill="url(#paint24_linear_2292_7024)"/>
<path d="M14.7178 24.7497L14.7341 24.5694C16.2271 24.7046 17.7154 24.5383 19.1578 24.0751C20.5631 23.6238 21.8643 22.9114 23.025 21.9575C25.434 19.978 26.9875 17.1533 27.3994 14.0037C27.7367 11.4246 27.5637 9.12622 26.8851 7.17248C26.1564 5.07455 24.8588 3.43292 23.0281 2.29322L23.1238 2.13965C24.9904 3.30182 26.3134 4.97514 27.056 7.11321C27.7439 9.09375 27.9198 11.4199 27.5789 14.0273C27.1609 17.2226 25.5845 20.0887 23.1399 22.0974C21.9614 23.0658 20.6403 23.7892 19.2131 24.2475C17.7475 24.7181 16.235 24.887 14.7178 24.7497Z" fill="url(#paint25_linear_2292_7024)"/>
<path d="M6.80401 1.25532C6.15896 1.84365 6.04297 2.76686 6.04297 2.76686C6.04297 2.76686 6.97292 2.7361 7.61796 2.14777C8.26301 1.55944 8.379 0.63623 8.379 0.63623C8.379 0.63623 7.44906 0.666991 6.80401 1.25532Z" fill="url(#paint26_linear_2292_7024)"/>
<path d="M11.3406 22.9357C11.896 23.6482 11.9294 24.4896 11.922 24.4923C11.9241 24.503 10.7567 24.1765 10.2328 23.3907C9.7088 22.6148 9.96403 21.8107 9.95636 21.813C9.95931 21.8206 10.7861 22.2299 11.3406 22.9357Z" fill="url(#paint27_linear_2292_7024)"/>
<path d="M10.5223 25.4027C11.5471 25.2287 11.9292 24.4539 11.9291 24.4609C11.917 24.4647 10.819 24.1478 9.87296 24.259C8.91744 24.3753 8.35608 24.9687 8.35608 24.9751C8.34252 24.9781 9.48648 25.5808 10.5223 25.4027Z" fill="url(#paint28_linear_2292_7024)"/>
<path d="M9.31455 22.0451C9.69623 22.8264 9.55917 23.6434 9.55212 23.6448C9.55305 23.6556 8.52694 23.1462 8.18136 22.2981C7.8347 21.4597 8.22917 20.7245 8.22196 20.7256C8.22367 20.7336 8.93279 21.2705 9.31455 22.0451Z" fill="url(#paint29_linear_2292_7024)"/>
<path d="M8.06318 24.2908C9.0593 24.2939 9.5662 23.6095 9.56534 23.6164C9.55411 23.6181 8.59169 23.1294 7.67328 23.0772C6.74589 23.0284 6.09619 23.5069 6.09534 23.5131C6.08263 23.514 7.05644 24.29 8.06318 24.2908Z" fill="url(#paint30_linear_2292_7024)"/>
<path d="M7.56587 20.8421C7.78251 21.6635 7.49396 22.4297 7.48746 22.43C7.48707 22.4408 6.60826 21.7744 6.43245 20.8931C6.2547 20.0212 6.7681 19.3756 6.76144 19.3755C6.76206 19.3835 7.34822 20.0272 7.56587 20.8421Z" fill="url(#paint31_linear_2292_7024)"/>
<path d="M5.94582 22.8014C6.89661 22.9736 7.50718 22.3974 7.50563 22.4039C7.49532 22.4039 6.67369 21.7681 5.79961 21.5599C4.91708 21.3536 4.20082 21.7054 4.19935 21.7114C4.18749 21.7102 4.98488 22.6299 5.94582 22.8014Z" fill="url(#paint32_linear_2292_7024)"/>
<path d="M6.10572 19.3736C6.16631 20.2084 5.74612 20.9011 5.74008 20.9004C5.73845 20.9108 5.01282 20.1134 4.99794 19.2261C4.98005 18.3476 5.59209 17.8087 5.58581 17.8076C5.58504 17.8157 6.04327 18.5449 6.10572 19.3736Z" fill="url(#paint33_linear_2292_7024)"/>
<path d="M4.18405 20.9954C5.07232 21.3266 5.76501 20.8727 5.76284 20.8788C5.75347 20.8772 5.07789 20.1192 4.26525 19.7646C3.4447 19.4105 2.68452 19.6271 2.68227 19.6328C2.67135 19.6298 3.28618 20.6631 4.18405 20.9954Z" fill="url(#paint34_linear_2292_7024)"/>
<path d="M4.9478 17.6915C4.86172 18.5152 4.33003 19.115 4.32445 19.1133C4.32151 19.1234 3.75526 18.221 3.89187 17.3526C4.02467 16.4924 4.71381 16.0738 4.70807 16.0718C4.70613 16.0797 5.03094 16.8737 4.9478 17.6915Z" fill="url(#paint35_linear_2292_7024)"/>
<path d="M2.79181 18.9335C3.60011 19.4116 4.35278 19.0907 4.34984 19.0964C4.34139 19.0933 3.81714 18.238 3.08338 17.7486C2.3421 17.2584 1.56122 17.3351 1.55828 17.3404C1.54821 17.3358 1.97444 18.4531 2.79181 18.9335Z" fill="url(#paint36_linear_2292_7024)"/>
<path d="M4.10281 15.845C3.87981 16.6352 3.25739 17.1262 3.25235 17.1237C3.24809 17.1332 2.84711 16.152 3.12582 15.3254C3.39957 14.5064 4.1441 14.2182 4.13891 14.2153C4.13566 14.2228 4.322 15.0602 4.10281 15.845Z" fill="url(#paint37_linear_2292_7024)"/>
<path d="M1.78396 16.6763C2.49425 17.2868 3.28419 17.1061 3.28055 17.1113C3.27303 17.107 2.90545 16.1791 2.26823 15.5688C1.62419 14.9566 0.846186 14.892 0.842544 14.8967C0.833401 14.8907 1.06507 16.0621 1.78396 16.6763Z" fill="url(#paint38_linear_2292_7024)"/>
<path d="M3.58426 13.8839C3.23427 14.6202 2.54281 14.99 2.53824 14.9868C2.53258 14.9955 2.30308 13.9617 2.71374 13.1977C3.11835 12.4405 3.89605 12.2893 3.8914 12.2856C3.88675 12.2925 3.92944 13.1523 3.58426 13.8839Z" fill="url(#paint39_linear_2292_7024)"/>
<path d="M1.17386 14.2852C1.76808 15.0117 2.57196 14.9749 2.56739 14.9795C2.56096 14.9741 2.35508 13.9985 1.83262 13.2832C1.30387 12.5651 0.553219 12.3612 0.548802 12.3653C0.540667 12.3581 0.571661 13.554 1.17386 14.2852Z" fill="url(#paint40_linear_2292_7024)"/>
<path d="M3.40366 11.8582C2.93721 12.5225 2.19848 12.7621 2.19453 12.7582C2.18748 12.766 2.13549 11.7058 2.66772 11.0231C3.19298 10.3462 3.98075 10.3353 3.97657 10.3311C3.9706 10.3373 3.86429 11.1979 3.40366 11.8582Z" fill="url(#paint41_linear_2292_7024)"/>
<path d="M0.976126 11.822C1.43568 12.6456 2.22949 12.7533 2.22414 12.7571C2.21872 12.7507 2.17998 11.7523 1.7907 10.9502C1.39585 10.1444 0.697341 9.80677 0.692072 9.8101C0.684943 9.80189 0.509135 10.9925 0.976126 11.822Z" fill="url(#paint42_linear_2292_7024)"/>
<path d="M3.57373 9.82005C3.0016 10.3961 2.23816 10.5 2.23475 10.4957C2.2263 10.5023 2.35794 9.44216 3.00113 8.85748C3.63634 8.27736 4.41055 8.40645 4.40699 8.40164C4.39963 8.40683 4.13897 9.24714 3.57373 9.82005Z" fill="url(#paint43_linear_2292_7024)"/>
<path d="M1.20505 9.3473C1.51095 10.2473 2.27012 10.4961 2.26408 10.4991C2.25966 10.492 2.39332 9.49537 2.15615 8.62679C1.91401 7.75363 1.29322 7.29137 1.2871 7.294C1.28105 7.2847 0.892324 8.44029 1.20505 9.3473Z" fill="url(#paint44_linear_2292_7024)"/>
<path d="M4.10654 7.81842C3.4398 8.29215 2.67496 8.25852 2.6721 8.25372C2.66218 8.25907 2.9835 7.22536 3.72664 6.75303C4.46072 6.28418 5.19727 6.5494 5.19433 6.54413C5.18549 6.54832 4.76546 7.34678 4.10654 7.81842Z" fill="url(#paint45_linear_2292_7024)"/>
<path d="M1.87471 6.92364C2.00775 7.87707 2.70727 8.2603 2.70037 8.26239C2.69712 8.2548 3.00821 7.28479 2.94235 6.37203C2.87215 5.45409 2.35503 4.87971 2.34821 4.88142C2.3431 4.87142 1.73555 5.9623 1.87471 6.92364Z" fill="url(#paint46_linear_2292_7024)"/>
<path d="M5.01493 5.90484C4.26497 6.26436 3.52245 6.09459 3.52021 6.0894C3.50874 6.09327 4.02586 5.11249 4.85756 4.76498C5.67904 4.41964 6.3533 4.8138 6.35097 4.80822C6.34067 4.81116 5.7559 5.54632 5.01493 5.90484Z" fill="url(#paint47_linear_2292_7024)"/>
<path d="M2.9992 4.61267C2.93954 5.59454 3.55383 6.1019 3.54608 6.10306C3.54391 6.09508 4.03786 5.17644 4.16284 4.24409C4.28418 3.306 3.89754 2.63554 3.88979 2.63631C3.88592 2.62578 3.05328 3.62221 2.9992 4.61267Z" fill="url(#paint48_linear_2292_7024)"/>
<path d="M6.31099 4.13009C5.48974 4.36556 4.79379 4.06461 4.79216 4.05919C4.77922 4.06136 5.49827 3.16008 6.40676 2.94777C7.30393 2.73609 7.89048 3.24848 7.88878 3.24267C7.877 3.24414 7.12231 3.89446 6.31099 4.13009Z" fill="url(#paint49_linear_2292_7024)"/>
<path d="M4.59265 2.47678C4.32038 3.4598 4.82309 4.07773 4.81448 4.07781C4.81348 4.06967 5.49548 3.22712 5.83122 2.3019C6.16401 1.37047 5.93505 0.623458 5.92644 0.623148C5.92366 0.612223 4.86012 1.48453 4.59265 2.47678Z" fill="url(#paint50_linear_2292_7024)"/>
<path d="M15.2057 24.7497L15.1894 24.5694C13.6963 24.7046 12.208 24.5383 10.7657 24.0751C9.36038 23.6238 8.05921 22.9114 6.89844 21.9575C4.48949 19.978 2.93596 17.1533 2.52406 14.0037C2.18677 11.4246 2.35979 9.12622 3.03839 7.17248C3.76704 5.07455 5.06472 3.43292 6.89542 2.29322L6.79973 2.13965C4.93308 3.30182 3.61006 4.97514 2.86746 7.11321C2.17957 9.09375 2.00368 11.4199 2.34468 14.0273C2.76263 17.2226 4.33902 20.0887 6.78361 22.0974C7.96213 23.0658 9.28329 23.7892 10.7104 24.2475C12.176 24.7181 13.6884 24.887 15.2057 24.7497Z" fill="url(#paint51_linear_2292_7024)"/>
<defs>
<linearGradient id="paint0_linear_2292_7024" x1="22.712" y1="0.63623" x2="22.712" y2="2.76686" gradientUnits="userSpaceOnUse">
<stop stop-color="#FBC38E"/>
<stop offset="1" stop-color="#9F481C"/>
</linearGradient>
<linearGradient id="paint1_linear_2292_7024" x1="19.0114" y1="21.813" x2="19.0114" y2="24.4925" gradientUnits="userSpaceOnUse">
<stop stop-color="#FBC38E"/>
<stop offset="1" stop-color="#9F481C"/>
</linearGradient>
<linearGradient id="paint2_linear_2292_7024" x1="19.7802" y1="24.2354" x2="19.7802" y2="25.4356" gradientUnits="userSpaceOnUse">
<stop stop-color="#FBC38E"/>
<stop offset="1" stop-color="#9F481C"/>
</linearGradient>
<linearGradient id="paint3_linear_2292_7024" x1="21.1129" y1="20.7256" x2="21.1129" y2="23.645" gradientUnits="userSpaceOnUse">
<stop stop-color="#FBC38E"/>
<stop offset="1" stop-color="#9F481C"/>
</linearGradient>
<linearGradient id="paint4_linear_2292_7024" x1="22.093" y1="23.0737" x2="22.093" y2="24.2909" gradientUnits="userSpaceOnUse">
<stop stop-color="#FBC38E"/>
<stop offset="1" stop-color="#9F481C"/>
</linearGradient>
<linearGradient id="paint5_linear_2292_7024" x1="22.9025" y1="19.3755" x2="22.9025" y2="22.4302" gradientUnits="userSpaceOnUse">
<stop stop-color="#FBC38E"/>
<stop offset="1" stop-color="#9F481C"/>
</linearGradient>
<linearGradient id="paint6_linear_2292_7024" x1="24.0707" y1="21.4951" x2="24.0707" y2="22.8336" gradientUnits="userSpaceOnUse">
<stop stop-color="#FBC38E"/>
<stop offset="1" stop-color="#9F481C"/>
</linearGradient>
<linearGradient id="paint7_linear_2292_7024" x1="24.3686" y1="17.8076" x2="24.3686" y2="20.9005" gradientUnits="userSpaceOnUse">
<stop stop-color="#FBC38E"/>
<stop offset="1" stop-color="#9F481C"/>
</linearGradient>
<linearGradient id="paint8_linear_2292_7024" x1="25.701" y1="19.562" x2="25.701" y2="21.1165" gradientUnits="userSpaceOnUse">
<stop stop-color="#FBC38E"/>
<stop offset="1" stop-color="#9F481C"/>
</linearGradient>
<linearGradient id="paint9_linear_2292_7024" x1="25.5068" y1="16.0718" x2="25.5068" y2="19.1134" gradientUnits="userSpaceOnUse">
<stop stop-color="#FBC38E"/>
<stop offset="1" stop-color="#9F481C"/>
</linearGradient>
<linearGradient id="paint10_linear_2292_7024" x1="26.9691" y1="17.333" x2="26.9691" y2="19.1965" gradientUnits="userSpaceOnUse">
<stop stop-color="#FBC38E"/>
<stop offset="1" stop-color="#9F481C"/>
</linearGradient>
<linearGradient id="paint11_linear_2292_7024" x1="26.3045" y1="14.2153" x2="26.3045" y2="17.1238" gradientUnits="userSpaceOnUse">
<stop stop-color="#FBC38E"/>
<stop offset="1" stop-color="#9F481C"/>
</linearGradient>
<linearGradient id="paint12_linear_2292_7024" x1="27.8622" y1="14.8965" x2="27.8622" y2="17.1324" gradientUnits="userSpaceOnUse">
<stop stop-color="#FBC38E"/>
<stop offset="1" stop-color="#9F481C"/>
</linearGradient>
<linearGradient id="paint13_linear_2292_7024" x1="26.7428" y1="12.2856" x2="26.7428" y2="14.9868" gradientUnits="userSpaceOnUse">
<stop stop-color="#FBC38E"/>
<stop offset="1" stop-color="#9F481C"/>
</linearGradient>
<linearGradient id="paint14_linear_2292_7024" x1="28.3658" y1="12.3652" x2="28.3658" y2="14.9795" gradientUnits="userSpaceOnUse">
<stop stop-color="#FBC38E"/>
<stop offset="1" stop-color="#9F481C"/>
</linearGradient>
<linearGradient id="paint15_linear_2292_7024" x1="26.8396" y1="10.3311" x2="26.8396" y2="12.7583" gradientUnits="userSpaceOnUse">
<stop stop-color="#FBC38E"/>
<stop offset="1" stop-color="#9F481C"/>
</linearGradient>
<linearGradient id="paint16_linear_2292_7024" x1="28.4839" y1="9.81006" x2="28.4839" y2="12.7571" gradientUnits="userSpaceOnUse">
<stop stop-color="#FBC38E"/>
<stop offset="1" stop-color="#9F481C"/>
</linearGradient>
<linearGradient id="paint17_linear_2292_7024" x1="26.6024" y1="8.39258" x2="26.6024" y2="10.4958" gradientUnits="userSpaceOnUse">
<stop stop-color="#FBC38E"/>
<stop offset="1" stop-color="#9F481C"/>
</linearGradient>
<linearGradient id="paint18_linear_2292_7024" x1="28.2326" y1="7.29395" x2="28.2326" y2="10.4991" gradientUnits="userSpaceOnUse">
<stop stop-color="#FBC38E"/>
<stop offset="1" stop-color="#9F481C"/>
</linearGradient>
<linearGradient id="paint19_linear_2292_7024" x1="25.9907" y1="6.47412" x2="25.9907" y2="8.25604" gradientUnits="userSpaceOnUse">
<stop stop-color="#FBC38E"/>
<stop offset="1" stop-color="#9F481C"/>
</linearGradient>
<linearGradient id="paint20_linear_2292_7024" x1="27.5209" y1="4.88135" x2="27.5209" y2="8.26239" gradientUnits="userSpaceOnUse">
<stop stop-color="#FBC38E"/>
<stop offset="1" stop-color="#9F481C"/>
</linearGradient>
<linearGradient id="paint21_linear_2292_7024" x1="24.9882" y1="4.62305" x2="24.9882" y2="6.13394" gradientUnits="userSpaceOnUse">
<stop stop-color="#FBC38E"/>
<stop offset="1" stop-color="#9F481C"/>
</linearGradient>
<linearGradient id="paint22_linear_2292_7024" x1="26.3329" y1="2.63623" x2="26.3329" y2="6.10306" gradientUnits="userSpaceOnUse">
<stop stop-color="#FBC38E"/>
<stop offset="1" stop-color="#9F481C"/>
</linearGradient>
<linearGradient id="paint23_linear_2292_7024" x1="23.5831" y1="2.89648" x2="23.5831" y2="4.21998" gradientUnits="userSpaceOnUse">
<stop stop-color="#FBC38E"/>
<stop offset="1" stop-color="#9F481C"/>
</linearGradient>
<linearGradient id="paint24_linear_2292_7024" x1="24.6614" y1="0.623047" x2="24.6614" y2="4.07781" gradientUnits="userSpaceOnUse">
<stop stop-color="#FBC38E"/>
<stop offset="1" stop-color="#9F481C"/>
</linearGradient>
<linearGradient id="paint25_linear_2292_7024" x1="21.2328" y1="2.13965" x2="21.2327" y2="24.7959" gradientUnits="userSpaceOnUse">
<stop stop-color="#FBC38E"/>
<stop offset="1" stop-color="#9F481C"/>
</linearGradient>
<linearGradient id="paint26_linear_2292_7024" x1="7.21099" y1="0.63623" x2="7.21099" y2="2.76686" gradientUnits="userSpaceOnUse">
<stop stop-color="#FBC38E"/>
<stop offset="1" stop-color="#9F481C"/>
</linearGradient>
<linearGradient id="paint27_linear_2292_7024" x1="10.9118" y1="21.813" x2="10.9118" y2="24.4925" gradientUnits="userSpaceOnUse">
<stop stop-color="#FBC38E"/>
<stop offset="1" stop-color="#9F481C"/>
</linearGradient>
<linearGradient id="paint28_linear_2292_7024" x1="10.1425" y1="24.2354" x2="10.1425" y2="25.4356" gradientUnits="userSpaceOnUse">
<stop stop-color="#FBC38E"/>
<stop offset="1" stop-color="#9F481C"/>
</linearGradient>
<linearGradient id="paint29_linear_2292_7024" x1="8.81017" y1="20.7256" x2="8.81016" y2="23.645" gradientUnits="userSpaceOnUse">
<stop stop-color="#FBC38E"/>
<stop offset="1" stop-color="#9F481C"/>
</linearGradient>
<linearGradient id="paint30_linear_2292_7024" x1="7.83028" y1="23.0737" x2="7.83028" y2="24.2909" gradientUnits="userSpaceOnUse">
<stop stop-color="#FBC38E"/>
<stop offset="1" stop-color="#9F481C"/>
</linearGradient>
<linearGradient id="paint31_linear_2292_7024" x1="7.02069" y1="19.3755" x2="7.02069" y2="22.4302" gradientUnits="userSpaceOnUse">
<stop stop-color="#FBC38E"/>
<stop offset="1" stop-color="#9F481C"/>
</linearGradient>
<linearGradient id="paint32_linear_2292_7024" x1="5.85243" y1="21.4951" x2="5.85243" y2="22.8336" gradientUnits="userSpaceOnUse">
<stop stop-color="#FBC38E"/>
<stop offset="1" stop-color="#9F481C"/>
</linearGradient>
<linearGradient id="paint33_linear_2292_7024" x1="5.55463" y1="17.8076" x2="5.55462" y2="20.9005" gradientUnits="userSpaceOnUse">
<stop stop-color="#FBC38E"/>
<stop offset="1" stop-color="#9F481C"/>
</linearGradient>
<linearGradient id="paint34_linear_2292_7024" x1="4.22249" y1="19.562" x2="4.22249" y2="21.1165" gradientUnits="userSpaceOnUse">
<stop stop-color="#FBC38E"/>
<stop offset="1" stop-color="#9F481C"/>
</linearGradient>
<linearGradient id="paint35_linear_2292_7024" x1="4.41601" y1="16.0718" x2="4.41601" y2="19.1134" gradientUnits="userSpaceOnUse">
<stop stop-color="#FBC38E"/>
<stop offset="1" stop-color="#9F481C"/>
</linearGradient>
<linearGradient id="paint36_linear_2292_7024" x1="2.95398" y1="17.333" x2="2.95398" y2="19.1965" gradientUnits="userSpaceOnUse">
<stop stop-color="#FBC38E"/>
<stop offset="1" stop-color="#9F481C"/>
</linearGradient>
<linearGradient id="paint37_linear_2292_7024" x1="3.61853" y1="14.2153" x2="3.61852" y2="17.1238" gradientUnits="userSpaceOnUse">
<stop stop-color="#FBC38E"/>
<stop offset="1" stop-color="#9F481C"/>
</linearGradient>
<linearGradient id="paint38_linear_2292_7024" x1="2.06142" y1="14.8965" x2="2.06142" y2="17.1324" gradientUnits="userSpaceOnUse">
<stop stop-color="#FBC38E"/>
<stop offset="1" stop-color="#9F481C"/>
</linearGradient>
<linearGradient id="paint39_linear_2292_7024" x1="3.18033" y1="12.2856" x2="3.18033" y2="14.9868" gradientUnits="userSpaceOnUse">
<stop stop-color="#FBC38E"/>
<stop offset="1" stop-color="#9F481C"/>
</linearGradient>
<linearGradient id="paint40_linear_2292_7024" x1="1.55763" y1="12.3652" x2="1.55763" y2="14.9795" gradientUnits="userSpaceOnUse">
<stop stop-color="#FBC38E"/>
<stop offset="1" stop-color="#9F481C"/>
</linearGradient>
<linearGradient id="paint41_linear_2292_7024" x1="3.08326" y1="10.3311" x2="3.08326" y2="12.7583" gradientUnits="userSpaceOnUse">
<stop stop-color="#FBC38E"/>
<stop offset="1" stop-color="#9F481C"/>
</linearGradient>
<linearGradient id="paint42_linear_2292_7024" x1="1.43899" y1="9.81006" x2="1.43899" y2="12.7571" gradientUnits="userSpaceOnUse">
<stop stop-color="#FBC38E"/>
<stop offset="1" stop-color="#9F481C"/>
</linearGradient>
<linearGradient id="paint43_linear_2292_7024" x1="3.32069" y1="8.39258" x2="3.32069" y2="10.4958" gradientUnits="userSpaceOnUse">
<stop stop-color="#FBC38E"/>
<stop offset="1" stop-color="#9F481C"/>
</linearGradient>
<linearGradient id="paint44_linear_2292_7024" x1="1.69058" y1="7.29395" x2="1.69057" y2="10.4991" gradientUnits="userSpaceOnUse">
<stop stop-color="#FBC38E"/>
<stop offset="1" stop-color="#9F481C"/>
</linearGradient>
<linearGradient id="paint45_linear_2292_7024" x1="3.93311" y1="6.47412" x2="3.93311" y2="8.25604" gradientUnits="userSpaceOnUse">
<stop stop-color="#FBC38E"/>
<stop offset="1" stop-color="#9F481C"/>
</linearGradient>
<linearGradient id="paint46_linear_2292_7024" x1="2.40276" y1="4.88135" x2="2.40275" y2="8.26239" gradientUnits="userSpaceOnUse">
<stop stop-color="#FBC38E"/>
<stop offset="1" stop-color="#9F481C"/>
</linearGradient>
<linearGradient id="paint47_linear_2292_7024" x1="4.9355" y1="4.62305" x2="4.9355" y2="6.13394" gradientUnits="userSpaceOnUse">
<stop stop-color="#FBC38E"/>
<stop offset="1" stop-color="#9F481C"/>
</linearGradient>
<linearGradient id="paint48_linear_2292_7024" x1="3.59075" y1="2.63623" x2="3.59075" y2="6.10306" gradientUnits="userSpaceOnUse">
<stop stop-color="#FBC38E"/>
<stop offset="1" stop-color="#9F481C"/>
</linearGradient>
<linearGradient id="paint49_linear_2292_7024" x1="6.34039" y1="2.89648" x2="6.34039" y2="4.21998" gradientUnits="userSpaceOnUse">
<stop stop-color="#FBC38E"/>
<stop offset="1" stop-color="#9F481C"/>
</linearGradient>
<linearGradient id="paint50_linear_2292_7024" x1="5.26146" y1="0.623047" x2="5.26146" y2="4.07781" gradientUnits="userSpaceOnUse">
<stop stop-color="#FBC38E"/>
<stop offset="1" stop-color="#9F481C"/>
</linearGradient>
<linearGradient id="paint51_linear_2292_7024" x1="8.69075" y1="2.13965" x2="8.69073" y2="24.7959" gradientUnits="userSpaceOnUse">
<stop stop-color="#FBC38E"/>
<stop offset="1" stop-color="#9F481C"/>
</linearGradient>
</defs>
</svg>
