<svg width="26" height="24" viewBox="0 0 26 24" fill="none" xmlns="http://www.w3.org/2000/svg">
<path d="M9.25 0.75H16.75L19.25 3.25H24.25C24.9404 3.25 25.5 3.80965 25.5 4.5V22C25.5 22.6904 24.9404 23.25 24.25 23.25H1.75C1.05965 23.25 0.5 22.6904 0.5 22V4.5C0.5 3.80965 1.05965 3.25 1.75 3.25H6.75L9.25 0.75ZM13 20.75C17.1421 20.75 20.5 17.3921 20.5 13.25C20.5 9.10786 17.1421 5.75 13 5.75C8.85786 5.75 5.5 9.10786 5.5 13.25C5.5 17.3921 8.85786 20.75 13 20.75ZM13 18.25C10.2386 18.25 8 16.0114 8 13.25C8 10.4886 10.2386 8.25 13 8.25C15.7614 8.25 18 10.4886 18 13.25C18 16.0114 15.7614 18.25 13 18.25Z" fill="white"/>
</svg>
