<svg width="30" height="26" viewBox="0 0 30 26" fill="none" xmlns="http://www.w3.org/2000/svg">
<path d="M23.1189 1.25434C23.764 1.84267 23.88 2.76588 23.88 2.76588C23.88 2.76588 22.95 2.73512 22.305 2.14679C21.6599 1.55846 21.5439 0.635254 21.5439 0.635254C21.5439 0.635254 22.4739 0.666015 23.1189 1.25434Z" fill="url(#paint0_linear_2292_6818)"/>
<path d="M18.5826 22.9338C18.0272 23.6462 17.9939 24.4876 18.0013 24.4903C17.9991 24.501 19.1666 24.1746 19.6904 23.3888C20.2144 22.6128 19.9592 21.8087 19.9669 21.811C19.9639 21.8186 19.1372 22.2279 18.5826 22.9338Z" fill="url(#paint1_linear_2292_6818)"/>
<path d="M19.4004 25.4012C18.3756 25.2273 17.9935 24.4525 17.9937 24.4594C18.0057 24.4632 19.1038 24.1463 20.0497 24.2576C21.0053 24.3739 21.5666 24.9672 21.5666 24.9736C21.5802 24.9766 20.4362 25.5793 19.4004 25.4012Z" fill="url(#paint2_linear_2292_6818)"/>
<path d="M20.6085 22.0441C20.2268 22.8254 20.3639 23.6424 20.3709 23.6439C20.37 23.6546 21.3961 23.1453 21.7417 22.2971C22.0884 21.4587 21.6939 20.7235 21.7011 20.7246C21.6994 20.7326 20.9903 21.2695 20.6085 22.0441Z" fill="url(#paint3_linear_2292_6818)"/>
<path d="M21.8601 24.2894C20.864 24.2925 20.3571 23.6081 20.3579 23.6149C20.3691 23.6167 21.3316 23.1279 22.25 23.0758C23.1774 23.0269 23.8271 23.5055 23.8279 23.5117C23.8406 23.5125 22.8667 24.2885 21.8601 24.2894Z" fill="url(#paint4_linear_2292_6818)"/>
<path d="M22.3574 20.8401C22.1407 21.6615 22.4293 22.4278 22.4358 22.4281C22.4361 22.4388 23.315 21.7724 23.4908 20.8911C23.6685 20.0192 23.1551 19.3736 23.1618 19.3735C23.1612 19.3816 22.575 20.0252 22.3574 20.8401Z" fill="url(#paint5_linear_2292_6818)"/>
<path d="M23.9773 22.8004C23.0265 22.9727 22.4159 22.3964 22.4175 22.4029C22.4278 22.4029 23.2494 21.7671 24.1235 21.5589C25.006 21.3527 25.7223 21.7044 25.7238 21.7104C25.7355 21.7092 24.9382 22.6289 23.9773 22.8004Z" fill="url(#paint6_linear_2292_6818)"/>
<path d="M23.817 19.3727C23.7564 20.2075 24.1766 20.9001 24.1827 20.8994C24.1843 20.9098 24.9099 20.1125 24.9248 19.2251C24.9427 18.3466 24.3306 17.8077 24.3369 17.8066C24.3376 17.8147 23.8795 18.544 23.817 19.3727Z" fill="url(#paint7_linear_2292_6818)"/>
<path d="M25.739 20.9939C24.8507 21.3252 24.158 20.8713 24.1602 20.8774C24.1695 20.8758 24.8451 20.1177 25.6577 19.7631C26.4783 19.409 27.2385 19.6256 27.2407 19.6313C27.2517 19.6284 26.6369 20.6617 25.739 20.9939Z" fill="url(#paint8_linear_2292_6818)"/>
<path d="M24.975 17.6905C25.0611 18.5142 25.5928 19.114 25.5984 19.1123C25.6013 19.1224 26.1676 18.22 26.0309 17.3516C25.8981 16.4915 25.209 16.0728 25.2147 16.0708C25.2167 16.0787 24.8919 16.8727 24.975 17.6905Z" fill="url(#paint9_linear_2292_6818)"/>
<path d="M27.1313 18.9325C26.323 19.4106 25.5703 19.0897 25.5733 19.0954C25.5817 19.0923 26.106 18.237 26.8397 17.7476C27.581 17.2574 28.3619 17.3341 28.3648 17.3394C28.3749 17.3348 27.9486 18.4521 27.1313 18.9325Z" fill="url(#paint10_linear_2292_6818)"/>
<path d="M25.8202 15.8441C26.0432 16.6342 26.6657 17.1252 26.6706 17.1228C26.6749 17.1322 27.0759 16.151 26.7972 15.3245C26.5235 14.5054 25.7789 14.2172 25.7841 14.2144C25.7874 14.2218 25.6011 15.0592 25.8202 15.8441Z" fill="url(#paint11_linear_2292_6818)"/>
<path d="M28.1397 16.6754C27.4294 17.2859 26.6394 17.1052 26.6431 17.1104C26.6506 17.106 27.0182 16.1782 27.6554 15.5678C28.2994 14.9556 29.0774 14.891 29.0811 14.8957C29.0902 14.8897 28.8585 16.0612 28.1397 16.6754Z" fill="url(#paint12_linear_2292_6818)"/>
<path d="M26.3389 13.8829C26.6889 14.6192 27.3804 14.989 27.3849 14.9858C27.3906 14.9945 27.6201 13.9607 27.2094 13.1967C26.8048 12.4395 26.0271 12.2883 26.0318 12.2847C26.0363 12.2916 25.9937 13.1513 26.3389 13.8829Z" fill="url(#paint13_linear_2292_6818)"/>
<path d="M28.7495 14.2843C28.1553 15.0107 27.3514 14.9739 27.356 14.9785C27.3624 14.9731 27.5683 13.9975 28.0908 13.2823C28.6195 12.5641 29.3701 12.3602 29.3746 12.3643C29.3827 12.3571 29.3517 13.5531 28.7495 14.2843Z" fill="url(#paint14_linear_2292_6818)"/>
<path d="M26.5192 11.8573C26.9857 12.5215 27.7244 12.7611 27.7283 12.7572C27.7354 12.765 27.7874 11.7049 27.2551 11.0222C26.7299 10.3453 25.9421 10.3343 25.9463 10.3301C25.9523 10.3363 26.0586 11.197 26.5192 11.8573Z" fill="url(#paint15_linear_2292_6818)"/>
<path d="M28.9468 11.821C28.4872 12.6446 27.6934 12.7523 27.6988 12.7561C27.7042 12.7498 27.7429 11.7513 28.1322 10.9492C28.5271 10.1434 29.2256 9.80579 29.2308 9.80912C29.238 9.80091 29.4137 10.9915 28.9468 11.821Z" fill="url(#paint16_linear_2292_6818)"/>
<path d="M26.3494 9.81907C26.9215 10.3951 27.685 10.4991 27.6884 10.4947C27.6968 10.5013 27.5652 9.44119 26.922 8.8565C26.2868 8.27638 25.5126 8.40547 25.5161 8.40067C25.5235 8.40586 25.7841 9.24616 26.3494 9.81907Z" fill="url(#paint17_linear_2292_6818)"/>
<path d="M28.7181 9.34681C28.4122 10.2469 27.653 10.4956 27.6591 10.4986C27.6634 10.4915 27.5299 9.49488 27.767 8.6263C28.0092 7.75314 28.63 7.29088 28.6361 7.29351C28.6421 7.28421 29.0308 8.4398 28.7181 9.34681Z" fill="url(#paint18_linear_2292_6818)"/>
<path d="M25.8168 7.81744C26.4835 8.29117 27.2484 8.25755 27.2512 8.25274C27.2612 8.25809 26.9398 7.22439 26.1967 6.75205C25.4626 6.2832 24.7261 6.54843 24.729 6.54316C24.7378 6.54734 25.1579 7.3458 25.8168 7.81744Z" fill="url(#paint19_linear_2292_6818)"/>
<path d="M28.0485 6.92266C27.9154 7.87609 27.2159 8.25932 27.2228 8.26141C27.2261 8.25382 26.915 7.28381 26.9808 6.37106C27.051 5.45312 27.5681 4.87873 27.575 4.88044C27.5801 4.87044 28.1876 5.96133 28.0485 6.92266Z" fill="url(#paint20_linear_2292_6818)"/>
<path d="M24.9088 5.90386C25.6588 6.26338 26.4013 6.09361 26.4035 6.08842C26.415 6.0923 25.8979 5.11152 25.0662 4.76401C24.2447 4.41866 23.5704 4.81282 23.5728 4.80724C23.5831 4.81019 24.1678 5.54534 24.9088 5.90386Z" fill="url(#paint21_linear_2292_6818)"/>
<path d="M26.9245 4.61267C26.9842 5.59454 26.3699 6.1019 26.3776 6.10306C26.3798 6.09508 25.8858 5.17644 25.7609 4.24409C25.6395 3.306 26.0262 2.63554 26.0339 2.63631C26.0378 2.62578 26.8703 3.62221 26.9245 4.61267Z" fill="url(#paint22_linear_2292_6818)"/>
<path d="M23.6125 4.12911C24.4337 4.36458 25.1297 4.06364 25.1313 4.05821C25.1442 4.06038 24.4252 3.1591 23.5167 2.9468C22.6195 2.73511 22.033 3.24751 22.0347 3.2417C22.0464 3.24317 22.8011 3.89348 23.6125 4.12911Z" fill="url(#paint23_linear_2292_6818)"/>
<path d="M25.3302 2.4758C25.6025 3.45883 25.0997 4.07675 25.1083 4.07683C25.1093 4.06869 24.4273 3.22614 24.0916 2.30092C23.7588 1.3695 23.9878 0.622482 23.9964 0.622172C23.9992 0.611247 25.0628 1.48355 25.3302 2.4758Z" fill="url(#paint24_linear_2292_6818)"/>
<path d="M14.7178 24.7487L14.7341 24.5685C16.2271 24.7036 17.7154 24.5373 19.1578 24.0741C20.5631 23.6229 21.8643 22.9104 23.025 21.9565C25.434 19.977 26.9875 17.1523 27.3994 14.0027C27.7367 11.4236 27.5637 9.12524 26.8851 7.17151C26.1564 5.07358 24.8588 3.43194 23.0281 2.29224L23.1238 2.13867C24.9904 3.30084 26.3134 4.97416 27.056 7.11223C27.7439 9.09278 27.9198 11.419 27.5789 14.0263C27.1609 17.2216 25.5845 20.0877 23.1399 22.0964C21.9614 23.0648 20.6403 23.7882 19.2131 24.2465C17.7475 24.7171 16.235 24.8861 14.7178 24.7487Z" fill="url(#paint25_linear_2292_6818)"/>
<path d="M6.80401 1.25434C6.15896 1.84267 6.04297 2.76588 6.04297 2.76588C6.04297 2.76588 6.97292 2.73512 7.61796 2.14679C8.26301 1.55846 8.379 0.635254 8.379 0.635254C8.379 0.635254 7.44906 0.666015 6.80401 1.25434Z" fill="url(#paint26_linear_2292_6818)"/>
<path d="M11.3396 22.9338C11.895 23.6462 11.9284 24.4876 11.921 24.4903C11.9231 24.501 10.7557 24.1746 10.2318 23.3888C9.70783 22.6128 9.96306 21.8087 9.95539 21.811C9.95833 21.8186 10.7851 22.2279 11.3396 22.9338Z" fill="url(#paint27_linear_2292_6818)"/>
<path d="M10.5223 25.4012C11.5471 25.2273 11.9292 24.4525 11.9291 24.4594C11.917 24.4632 10.819 24.1463 9.87296 24.2576C8.91744 24.3739 8.35608 24.9672 8.35608 24.9736C8.34252 24.9766 9.48648 25.5793 10.5223 25.4012Z" fill="url(#paint28_linear_2292_6818)"/>
<path d="M9.31455 22.0441C9.69623 22.8254 9.55917 23.6424 9.55212 23.6439C9.55305 23.6546 8.52694 23.1453 8.18136 22.2971C7.8347 21.4587 8.22917 20.7235 8.22196 20.7246C8.22367 20.7326 8.93279 21.2695 9.31455 22.0441Z" fill="url(#paint29_linear_2292_6818)"/>
<path d="M8.06318 24.2894C9.0593 24.2925 9.5662 23.6081 9.56534 23.6149C9.55411 23.6167 8.59169 23.1279 7.67328 23.0758C6.74589 23.0269 6.09619 23.5055 6.09534 23.5117C6.08263 23.5125 7.05644 24.2885 8.06318 24.2894Z" fill="url(#paint30_linear_2292_6818)"/>
<path d="M7.56587 20.8401C7.78251 21.6615 7.49396 22.4278 7.48746 22.4281C7.48707 22.4388 6.60826 21.7724 6.43245 20.8911C6.2547 20.0192 6.7681 19.3736 6.76144 19.3735C6.76206 19.3816 7.34822 20.0252 7.56587 20.8401Z" fill="url(#paint31_linear_2292_6818)"/>
<path d="M5.94582 22.8004C6.89661 22.9727 7.50718 22.3964 7.50563 22.4029C7.49532 22.4029 6.67369 21.7671 5.79961 21.5589C4.91708 21.3527 4.20082 21.7044 4.19935 21.7104C4.18749 21.7092 4.98488 22.6289 5.94582 22.8004Z" fill="url(#paint32_linear_2292_6818)"/>
<path d="M6.10572 19.3727C6.16631 20.2075 5.74612 20.9001 5.74008 20.8994C5.73845 20.9098 5.01282 20.1125 4.99794 19.2251C4.98005 18.3466 5.59209 17.8077 5.58581 17.8066C5.58504 17.8147 6.04327 18.544 6.10572 19.3727Z" fill="url(#paint33_linear_2292_6818)"/>
<path d="M4.18405 20.9939C5.07232 21.3252 5.76501 20.8713 5.76284 20.8774C5.75347 20.8758 5.07789 20.1177 4.26525 19.7631C3.4447 19.409 2.68452 19.6256 2.68227 19.6313C2.67135 19.6284 3.28618 20.6617 4.18405 20.9939Z" fill="url(#paint34_linear_2292_6818)"/>
<path d="M4.9478 17.6905C4.86172 18.5142 4.33003 19.114 4.32445 19.1123C4.32151 19.1224 3.75526 18.22 3.89187 17.3516C4.02467 16.4915 4.71381 16.0728 4.70807 16.0708C4.70613 16.0787 5.03094 16.8727 4.9478 17.6905Z" fill="url(#paint35_linear_2292_6818)"/>
<path d="M2.79181 18.9325C3.60011 19.4106 4.35278 19.0897 4.34984 19.0954C4.34139 19.0923 3.81714 18.237 3.08338 17.7476C2.3421 17.2574 1.56122 17.3341 1.55828 17.3394C1.54821 17.3348 1.97444 18.4521 2.79181 18.9325Z" fill="url(#paint36_linear_2292_6818)"/>
<path d="M4.10281 15.8441C3.87981 16.6342 3.25739 17.1252 3.25235 17.1228C3.24809 17.1322 2.84711 16.151 3.12582 15.3245C3.39957 14.5054 4.1441 14.2172 4.13891 14.2144C4.13566 14.2218 4.322 15.0592 4.10281 15.8441Z" fill="url(#paint37_linear_2292_6818)"/>
<path d="M1.78396 16.6754C2.49425 17.2859 3.28419 17.1052 3.28055 17.1104C3.27303 17.106 2.90545 16.1782 2.26823 15.5678C1.62419 14.9556 0.846186 14.891 0.842544 14.8957C0.833401 14.8897 1.06507 16.0612 1.78396 16.6754Z" fill="url(#paint38_linear_2292_6818)"/>
<path d="M3.58426 13.8829C3.23427 14.6192 2.54281 14.989 2.53824 14.9858C2.53258 14.9945 2.30308 13.9607 2.71374 13.1967C3.11835 12.4395 3.89605 12.2883 3.8914 12.2847C3.88675 12.2916 3.92944 13.1513 3.58426 13.8829Z" fill="url(#paint39_linear_2292_6818)"/>
<path d="M1.17386 14.2843C1.76808 15.0107 2.57196 14.9739 2.56739 14.9785C2.56096 14.9731 2.35508 13.9975 1.83262 13.2823C1.30387 12.5641 0.553219 12.3602 0.548802 12.3643C0.540667 12.3571 0.571661 13.5531 1.17386 14.2843Z" fill="url(#paint40_linear_2292_6818)"/>
<path d="M3.40366 11.8573C2.93721 12.5215 2.19848 12.7611 2.19453 12.7572C2.18748 12.765 2.13549 11.7049 2.66772 11.0222C3.19298 10.3453 3.98075 10.3343 3.97657 10.3301C3.9706 10.3363 3.86429 11.197 3.40366 11.8573Z" fill="url(#paint41_linear_2292_6818)"/>
<path d="M0.976126 11.821C1.43568 12.6446 2.22949 12.7523 2.22414 12.7561C2.21872 12.7498 2.17998 11.7513 1.7907 10.9492C1.39585 10.1434 0.697341 9.80579 0.692072 9.80912C0.684943 9.80091 0.509135 10.9915 0.976126 11.821Z" fill="url(#paint42_linear_2292_6818)"/>
<path d="M3.57373 9.81907C3.0016 10.3951 2.23816 10.4991 2.23475 10.4947C2.2263 10.5013 2.35794 9.44119 3.00113 8.8565C3.63634 8.27638 4.41055 8.40547 4.40699 8.40067C4.39963 8.40586 4.13897 9.24616 3.57373 9.81907Z" fill="url(#paint43_linear_2292_6818)"/>
<path d="M1.20505 9.34681C1.51095 10.2469 2.27012 10.4956 2.26408 10.4986C2.25966 10.4915 2.39332 9.49488 2.15615 8.6263C1.91401 7.75314 1.29322 7.29088 1.2871 7.29351C1.28105 7.28421 0.892324 8.4398 1.20505 9.34681Z" fill="url(#paint44_linear_2292_6818)"/>
<path d="M4.10654 7.81744C3.4398 8.29117 2.67496 8.25755 2.6721 8.25274C2.66218 8.25809 2.9835 7.22439 3.72664 6.75205C4.46072 6.2832 5.19727 6.54843 5.19433 6.54316C5.18549 6.54734 4.76546 7.3458 4.10654 7.81744Z" fill="url(#paint45_linear_2292_6818)"/>
<path d="M1.87471 6.92266C2.00775 7.87609 2.70727 8.25932 2.70037 8.26141C2.69712 8.25382 3.00821 7.28381 2.94235 6.37106C2.87215 5.45312 2.35503 4.87873 2.34821 4.88044C2.3431 4.87044 1.73555 5.96133 1.87471 6.92266Z" fill="url(#paint46_linear_2292_6818)"/>
<path d="M5.01493 5.90386C4.26497 6.26338 3.52245 6.09361 3.52021 6.08842C3.50874 6.0923 4.02586 5.11152 4.85756 4.76401C5.67904 4.41866 6.3533 4.81282 6.35097 4.80724C6.34067 4.81019 5.7559 5.54534 5.01493 5.90386Z" fill="url(#paint47_linear_2292_6818)"/>
<path d="M2.9992 4.61267C2.93954 5.59454 3.55383 6.1019 3.54608 6.10306C3.54391 6.09508 4.03786 5.17644 4.16284 4.24409C4.28418 3.306 3.89754 2.63554 3.88979 2.63631C3.88592 2.62578 3.05328 3.62221 2.9992 4.61267Z" fill="url(#paint48_linear_2292_6818)"/>
<path d="M6.31099 4.12911C5.48974 4.36458 4.79379 4.06364 4.79216 4.05821C4.77922 4.06038 5.49827 3.1591 6.40676 2.9468C7.30393 2.73511 7.89048 3.24751 7.88878 3.2417C7.877 3.24317 7.12231 3.89348 6.31099 4.12911Z" fill="url(#paint49_linear_2292_6818)"/>
<path d="M4.59265 2.4758C4.32038 3.45883 4.82309 4.07675 4.81448 4.07683C4.81348 4.06869 5.49548 3.22614 5.83122 2.30092C6.16401 1.3695 5.93505 0.622482 5.92644 0.622172C5.92366 0.611247 4.86012 1.48355 4.59265 2.4758Z" fill="url(#paint50_linear_2292_6818)"/>
<path d="M15.2057 24.7487L15.1894 24.5685C13.6963 24.7036 12.208 24.5373 10.7657 24.0741C9.36038 23.6229 8.05921 22.9104 6.89844 21.9565C4.48949 19.977 2.93596 17.1523 2.52406 14.0027C2.18677 11.4236 2.35979 9.12524 3.03839 7.17151C3.76704 5.07358 5.06472 3.43194 6.89542 2.29224L6.79973 2.13867C4.93308 3.30084 3.61006 4.97416 2.86746 7.11223C2.17957 9.09278 2.00368 11.419 2.34468 14.0263C2.76263 17.2216 4.33902 20.0877 6.78361 22.0964C7.96213 23.0648 9.28329 23.7882 10.7104 24.2465C12.176 24.7171 13.6884 24.8861 15.2057 24.7487Z" fill="url(#paint51_linear_2292_6818)"/>
<defs>
<linearGradient id="paint0_linear_2292_6818" x1="22.712" y1="0.635254" x2="22.712" y2="2.76588" gradientUnits="userSpaceOnUse">
<stop stop-color="#FBEE86"/>
<stop offset="1" stop-color="#B98339"/>
</linearGradient>
<linearGradient id="paint1_linear_2292_6818" x1="19.0114" y1="21.811" x2="19.0114" y2="24.4906" gradientUnits="userSpaceOnUse">
<stop stop-color="#FBEE86"/>
<stop offset="1" stop-color="#B98339"/>
</linearGradient>
<linearGradient id="paint2_linear_2292_6818" x1="19.7802" y1="24.2339" x2="19.7802" y2="25.4341" gradientUnits="userSpaceOnUse">
<stop stop-color="#FBEE86"/>
<stop offset="1" stop-color="#B98339"/>
</linearGradient>
<linearGradient id="paint3_linear_2292_6818" x1="21.1129" y1="20.7246" x2="21.1129" y2="23.644" gradientUnits="userSpaceOnUse">
<stop stop-color="#FBEE86"/>
<stop offset="1" stop-color="#B98339"/>
</linearGradient>
<linearGradient id="paint4_linear_2292_6818" x1="22.093" y1="23.0723" x2="22.093" y2="24.2894" gradientUnits="userSpaceOnUse">
<stop stop-color="#FBEE86"/>
<stop offset="1" stop-color="#B98339"/>
</linearGradient>
<linearGradient id="paint5_linear_2292_6818" x1="22.9025" y1="19.3735" x2="22.9025" y2="22.4282" gradientUnits="userSpaceOnUse">
<stop stop-color="#FBEE86"/>
<stop offset="1" stop-color="#B98339"/>
</linearGradient>
<linearGradient id="paint6_linear_2292_6818" x1="24.0707" y1="21.4941" x2="24.0707" y2="22.8326" gradientUnits="userSpaceOnUse">
<stop stop-color="#FBEE86"/>
<stop offset="1" stop-color="#B98339"/>
</linearGradient>
<linearGradient id="paint7_linear_2292_6818" x1="24.3681" y1="17.8066" x2="24.3681" y2="20.8995" gradientUnits="userSpaceOnUse">
<stop stop-color="#FBEE86"/>
<stop offset="1" stop-color="#B98339"/>
</linearGradient>
<linearGradient id="paint8_linear_2292_6818" x1="25.7005" y1="19.5605" x2="25.7005" y2="21.115" gradientUnits="userSpaceOnUse">
<stop stop-color="#FBEE86"/>
<stop offset="1" stop-color="#B98339"/>
</linearGradient>
<linearGradient id="paint9_linear_2292_6818" x1="25.5068" y1="16.0708" x2="25.5068" y2="19.1124" gradientUnits="userSpaceOnUse">
<stop stop-color="#FBEE86"/>
<stop offset="1" stop-color="#B98339"/>
</linearGradient>
<linearGradient id="paint10_linear_2292_6818" x1="26.9691" y1="17.332" x2="26.9691" y2="19.1955" gradientUnits="userSpaceOnUse">
<stop stop-color="#FBEE86"/>
<stop offset="1" stop-color="#B98339"/>
</linearGradient>
<linearGradient id="paint11_linear_2292_6818" x1="26.3045" y1="14.2144" x2="26.3045" y2="17.1228" gradientUnits="userSpaceOnUse">
<stop stop-color="#FBEE86"/>
<stop offset="1" stop-color="#B98339"/>
</linearGradient>
<linearGradient id="paint12_linear_2292_6818" x1="27.8622" y1="14.8955" x2="27.8622" y2="17.1314" gradientUnits="userSpaceOnUse">
<stop stop-color="#FBEE86"/>
<stop offset="1" stop-color="#B98339"/>
</linearGradient>
<linearGradient id="paint13_linear_2292_6818" x1="26.7428" y1="12.2847" x2="26.7428" y2="14.9859" gradientUnits="userSpaceOnUse">
<stop stop-color="#FBEE86"/>
<stop offset="1" stop-color="#B98339"/>
</linearGradient>
<linearGradient id="paint14_linear_2292_6818" x1="28.3658" y1="12.3643" x2="28.3658" y2="14.9785" gradientUnits="userSpaceOnUse">
<stop stop-color="#FBEE86"/>
<stop offset="1" stop-color="#B98339"/>
</linearGradient>
<linearGradient id="paint15_linear_2292_6818" x1="26.8396" y1="10.3301" x2="26.8396" y2="12.7573" gradientUnits="userSpaceOnUse">
<stop stop-color="#FBEE86"/>
<stop offset="1" stop-color="#B98339"/>
</linearGradient>
<linearGradient id="paint16_linear_2292_6818" x1="28.4839" y1="9.80908" x2="28.4839" y2="12.7561" gradientUnits="userSpaceOnUse">
<stop stop-color="#FBEE86"/>
<stop offset="1" stop-color="#B98339"/>
</linearGradient>
<linearGradient id="paint17_linear_2292_6818" x1="26.6024" y1="8.3916" x2="26.6024" y2="10.4949" gradientUnits="userSpaceOnUse">
<stop stop-color="#FBEE86"/>
<stop offset="1" stop-color="#B98339"/>
</linearGradient>
<linearGradient id="paint18_linear_2292_6818" x1="28.2326" y1="7.29346" x2="28.2326" y2="10.4986" gradientUnits="userSpaceOnUse">
<stop stop-color="#FBEE86"/>
<stop offset="1" stop-color="#B98339"/>
</linearGradient>
<linearGradient id="paint19_linear_2292_6818" x1="25.9902" y1="6.47314" x2="25.9902" y2="8.25507" gradientUnits="userSpaceOnUse">
<stop stop-color="#FBEE86"/>
<stop offset="1" stop-color="#B98339"/>
</linearGradient>
<linearGradient id="paint20_linear_2292_6818" x1="27.5204" y1="4.88037" x2="27.5204" y2="8.26141" gradientUnits="userSpaceOnUse">
<stop stop-color="#FBEE86"/>
<stop offset="1" stop-color="#B98339"/>
</linearGradient>
<linearGradient id="paint21_linear_2292_6818" x1="24.9882" y1="4.62207" x2="24.9882" y2="6.13297" gradientUnits="userSpaceOnUse">
<stop stop-color="#FBEE86"/>
<stop offset="1" stop-color="#B98339"/>
</linearGradient>
<linearGradient id="paint22_linear_2292_6818" x1="26.3329" y1="2.63623" x2="26.3329" y2="6.10306" gradientUnits="userSpaceOnUse">
<stop stop-color="#FBEE86"/>
<stop offset="1" stop-color="#B98339"/>
</linearGradient>
<linearGradient id="paint23_linear_2292_6818" x1="23.5831" y1="2.89551" x2="23.5831" y2="4.219" gradientUnits="userSpaceOnUse">
<stop stop-color="#FBEE86"/>
<stop offset="1" stop-color="#B98339"/>
</linearGradient>
<linearGradient id="paint24_linear_2292_6818" x1="24.6614" y1="0.62207" x2="24.6614" y2="4.07683" gradientUnits="userSpaceOnUse">
<stop stop-color="#FBEE86"/>
<stop offset="1" stop-color="#B98339"/>
</linearGradient>
<linearGradient id="paint25_linear_2292_6818" x1="21.2328" y1="2.13867" x2="21.2327" y2="24.7949" gradientUnits="userSpaceOnUse">
<stop stop-color="#FBEE86"/>
<stop offset="1" stop-color="#B98339"/>
</linearGradient>
<linearGradient id="paint26_linear_2292_6818" x1="7.21099" y1="0.635254" x2="7.21099" y2="2.76588" gradientUnits="userSpaceOnUse">
<stop stop-color="#FBEE86"/>
<stop offset="1" stop-color="#B98339"/>
</linearGradient>
<linearGradient id="paint27_linear_2292_6818" x1="10.9108" y1="21.811" x2="10.9108" y2="24.4906" gradientUnits="userSpaceOnUse">
<stop stop-color="#FBEE86"/>
<stop offset="1" stop-color="#B98339"/>
</linearGradient>
<linearGradient id="paint28_linear_2292_6818" x1="10.1425" y1="24.2339" x2="10.1425" y2="25.4341" gradientUnits="userSpaceOnUse">
<stop stop-color="#FBEE86"/>
<stop offset="1" stop-color="#B98339"/>
</linearGradient>
<linearGradient id="paint29_linear_2292_6818" x1="8.81017" y1="20.7246" x2="8.81016" y2="23.644" gradientUnits="userSpaceOnUse">
<stop stop-color="#FBEE86"/>
<stop offset="1" stop-color="#B98339"/>
</linearGradient>
<linearGradient id="paint30_linear_2292_6818" x1="7.83028" y1="23.0723" x2="7.83028" y2="24.2894" gradientUnits="userSpaceOnUse">
<stop stop-color="#FBEE86"/>
<stop offset="1" stop-color="#B98339"/>
</linearGradient>
<linearGradient id="paint31_linear_2292_6818" x1="7.02069" y1="19.3735" x2="7.02069" y2="22.4282" gradientUnits="userSpaceOnUse">
<stop stop-color="#FBEE86"/>
<stop offset="1" stop-color="#B98339"/>
</linearGradient>
<linearGradient id="paint32_linear_2292_6818" x1="5.85243" y1="21.4941" x2="5.85243" y2="22.8326" gradientUnits="userSpaceOnUse">
<stop stop-color="#FBEE86"/>
<stop offset="1" stop-color="#B98339"/>
</linearGradient>
<linearGradient id="paint33_linear_2292_6818" x1="5.55463" y1="17.8066" x2="5.55462" y2="20.8995" gradientUnits="userSpaceOnUse">
<stop stop-color="#FBEE86"/>
<stop offset="1" stop-color="#B98339"/>
</linearGradient>
<linearGradient id="paint34_linear_2292_6818" x1="4.22249" y1="19.5605" x2="4.22249" y2="21.115" gradientUnits="userSpaceOnUse">
<stop stop-color="#FBEE86"/>
<stop offset="1" stop-color="#B98339"/>
</linearGradient>
<linearGradient id="paint35_linear_2292_6818" x1="4.41601" y1="16.0708" x2="4.41601" y2="19.1124" gradientUnits="userSpaceOnUse">
<stop stop-color="#FBEE86"/>
<stop offset="1" stop-color="#B98339"/>
</linearGradient>
<linearGradient id="paint36_linear_2292_6818" x1="2.95398" y1="17.332" x2="2.95398" y2="19.1955" gradientUnits="userSpaceOnUse">
<stop stop-color="#FBEE86"/>
<stop offset="1" stop-color="#B98339"/>
</linearGradient>
<linearGradient id="paint37_linear_2292_6818" x1="3.61853" y1="14.2144" x2="3.61852" y2="17.1228" gradientUnits="userSpaceOnUse">
<stop stop-color="#FBEE86"/>
<stop offset="1" stop-color="#B98339"/>
</linearGradient>
<linearGradient id="paint38_linear_2292_6818" x1="2.06142" y1="14.8955" x2="2.06142" y2="17.1314" gradientUnits="userSpaceOnUse">
<stop stop-color="#FBEE86"/>
<stop offset="1" stop-color="#B98339"/>
</linearGradient>
<linearGradient id="paint39_linear_2292_6818" x1="3.18033" y1="12.2847" x2="3.18033" y2="14.9859" gradientUnits="userSpaceOnUse">
<stop stop-color="#FBEE86"/>
<stop offset="1" stop-color="#B98339"/>
</linearGradient>
<linearGradient id="paint40_linear_2292_6818" x1="1.55763" y1="12.3643" x2="1.55763" y2="14.9785" gradientUnits="userSpaceOnUse">
<stop stop-color="#FBEE86"/>
<stop offset="1" stop-color="#B98339"/>
</linearGradient>
<linearGradient id="paint41_linear_2292_6818" x1="3.08326" y1="10.3301" x2="3.08326" y2="12.7573" gradientUnits="userSpaceOnUse">
<stop stop-color="#FBEE86"/>
<stop offset="1" stop-color="#B98339"/>
</linearGradient>
<linearGradient id="paint42_linear_2292_6818" x1="1.43899" y1="9.80908" x2="1.43899" y2="12.7561" gradientUnits="userSpaceOnUse">
<stop stop-color="#FBEE86"/>
<stop offset="1" stop-color="#B98339"/>
</linearGradient>
<linearGradient id="paint43_linear_2292_6818" x1="3.32069" y1="8.3916" x2="3.32069" y2="10.4949" gradientUnits="userSpaceOnUse">
<stop stop-color="#FBEE86"/>
<stop offset="1" stop-color="#B98339"/>
</linearGradient>
<linearGradient id="paint44_linear_2292_6818" x1="1.69058" y1="7.29346" x2="1.69057" y2="10.4986" gradientUnits="userSpaceOnUse">
<stop stop-color="#FBEE86"/>
<stop offset="1" stop-color="#B98339"/>
</linearGradient>
<linearGradient id="paint45_linear_2292_6818" x1="3.93311" y1="6.47314" x2="3.93311" y2="8.25507" gradientUnits="userSpaceOnUse">
<stop stop-color="#FBEE86"/>
<stop offset="1" stop-color="#B98339"/>
</linearGradient>
<linearGradient id="paint46_linear_2292_6818" x1="2.40276" y1="4.88037" x2="2.40275" y2="8.26141" gradientUnits="userSpaceOnUse">
<stop stop-color="#FBEE86"/>
<stop offset="1" stop-color="#B98339"/>
</linearGradient>
<linearGradient id="paint47_linear_2292_6818" x1="4.9355" y1="4.62207" x2="4.9355" y2="6.13297" gradientUnits="userSpaceOnUse">
<stop stop-color="#FBEE86"/>
<stop offset="1" stop-color="#B98339"/>
</linearGradient>
<linearGradient id="paint48_linear_2292_6818" x1="3.59075" y1="2.63623" x2="3.59075" y2="6.10306" gradientUnits="userSpaceOnUse">
<stop stop-color="#FBEE86"/>
<stop offset="1" stop-color="#B98339"/>
</linearGradient>
<linearGradient id="paint49_linear_2292_6818" x1="6.34039" y1="2.89551" x2="6.34039" y2="4.219" gradientUnits="userSpaceOnUse">
<stop stop-color="#FBEE86"/>
<stop offset="1" stop-color="#B98339"/>
</linearGradient>
<linearGradient id="paint50_linear_2292_6818" x1="5.26146" y1="0.62207" x2="5.26146" y2="4.07683" gradientUnits="userSpaceOnUse">
<stop stop-color="#FBEE86"/>
<stop offset="1" stop-color="#B98339"/>
</linearGradient>
<linearGradient id="paint51_linear_2292_6818" x1="8.69075" y1="2.13867" x2="8.69073" y2="24.7949" gradientUnits="userSpaceOnUse">
<stop stop-color="#FBEE86"/>
<stop offset="1" stop-color="#B98339"/>
</linearGradient>
</defs>
</svg>
