<svg width="25" height="25" viewBox="0 0 25 25" fill="none" xmlns="http://www.w3.org/2000/svg">
<path d="M19.5088 3.52148H5.50879C4.40422 3.52148 3.50879 4.41691 3.50879 5.52148V19.5215C3.50879 20.6261 4.40422 21.5215 5.50879 21.5215H19.5088C20.6134 21.5215 21.5088 20.6261 21.5088 19.5215V5.52148C21.5088 4.41691 20.6134 3.52148 19.5088 3.52148Z" stroke="#B8B8B8" stroke-width="2" stroke-linecap="round" stroke-linejoin="round"/>
<path d="M12.5088 13.5215C14.1656 13.5215 15.5088 12.1783 15.5088 10.5215C15.5088 8.86463 14.1656 7.52148 12.5088 7.52148C10.8519 7.52148 9.50879 8.86463 9.50879 10.5215C9.50879 12.1783 10.8519 13.5215 12.5088 13.5215Z" stroke="#B8B8B8" stroke-width="2" stroke-linecap="round" stroke-linejoin="round"/>
<path d="M7.50879 21.5215V19.5215C7.50879 18.9911 7.7195 18.4823 8.09458 18.1073C8.46965 17.7322 8.97836 17.5215 9.50879 17.5215H15.5088C16.0392 17.5215 16.5479 17.7322 16.923 18.1073C17.2981 18.4823 17.5088 18.9911 17.5088 19.5215V21.5215" stroke="#B8B8B8" stroke-width="2" stroke-linecap="round" stroke-linejoin="round"/>
</svg>
