<svg width="94" height="159" viewBox="0 0 94 159" fill="none" xmlns="http://www.w3.org/2000/svg">
<path d="M40.1908 4.79503C36.0984 8.52735 35.3628 14.3852 35.3628 14.3852C35.3628 14.3852 41.2633 14.1897 45.3557 10.4574C49.448 6.72507 50.1837 0.867188 50.1837 0.867188C50.1837 0.867188 44.2832 1.06271 40.1908 4.79503Z" fill="url(#paint0_linear_2259_3730)"/>
<path d="M68.9734 142.356C72.4967 146.877 72.7096 152.216 72.6612 152.233C72.6748 152.301 65.2682 150.229 61.9424 145.243C58.6166 140.32 60.2369 135.217 60.1885 135.232C60.2079 135.281 65.4521 137.879 68.9715 142.356H68.9734Z" fill="url(#paint1_linear_2259_3730)"/>
<path d="M63.7853 158.009C70.2878 156.906 72.7115 151.989 72.7115 152.033C72.6341 152.057 65.667 150.047 59.6658 150.752C53.6027 151.49 50.0408 155.255 50.0408 155.295C49.9556 155.315 57.2131 159.14 63.7873 158.009H63.7853Z" fill="url(#paint2_linear_2259_3730)"/>
<path d="M56.1203 136.708C58.5421 141.665 57.6729 146.849 57.6284 146.857C57.6342 146.925 51.1239 143.694 48.9306 138.312C46.7315 132.993 49.2345 128.327 49.1881 128.335C49.1997 128.385 53.6986 131.792 56.1203 136.708Z" fill="url(#paint3_linear_2259_3730)"/>
<path d="M48.1794 150.955C54.5 150.975 57.7154 146.633 57.7115 146.675C57.6399 146.687 51.5342 143.586 45.7054 143.255C39.8204 142.945 35.699 145.982 35.6932 146.021C35.6119 146.027 41.7911 150.952 48.1794 150.955Z" fill="url(#paint4_linear_2259_3730)"/>
<path d="M45.0232 129.071C46.3977 134.282 44.5663 139.145 44.5257 139.147C44.5238 139.215 38.9466 134.987 37.8315 129.394C36.7029 123.861 39.961 119.765 39.9184 119.765C39.9222 119.817 43.641 123.9 45.0213 129.071H45.0232Z" fill="url(#paint5_linear_2259_3730)"/>
<path d="M34.7442 141.507C40.7764 142.6 44.6519 138.944 44.6422 138.984C44.5764 138.984 39.3632 134.95 33.817 133.63C28.2166 132.321 23.6731 134.553 23.6634 134.59C23.5879 134.582 28.6482 140.419 34.7442 141.507Z" fill="url(#paint6_linear_2259_3730)"/>
<path d="M35.7605 119.758C36.1458 125.054 33.4782 129.45 33.4394 129.445C33.4298 129.51 28.8244 124.452 28.7295 118.821C28.6153 113.247 32.4986 109.827 32.4599 109.821C32.456 109.873 35.3617 114.5 35.7586 119.758H35.7605Z" fill="url(#paint7_linear_2259_3730)"/>
<path d="M23.5648 130.047C29.202 132.149 33.5964 129.268 33.5828 129.307C33.5228 129.297 29.2369 124.487 24.0798 122.237C18.8723 119.99 14.0501 121.366 14.0366 121.401C13.9669 121.384 17.8676 127.938 23.5648 130.047Z" fill="url(#paint8_linear_2259_3730)"/>
<path d="M28.4127 109.083C27.8667 114.31 24.4926 118.116 24.4577 118.104C24.4384 118.168 20.8454 112.442 21.7127 106.932C22.5548 101.475 26.9279 98.8192 26.8911 98.8057C26.8795 98.856 28.9392 103.893 28.4127 109.083Z" fill="url(#paint9_linear_2259_3730)"/>
<path d="M14.7316 116.962C19.8596 119.995 24.6354 117.959 24.618 117.996C24.5637 117.976 21.238 112.548 16.5822 109.443C11.8781 106.332 6.92427 106.82 6.90491 106.853C6.84103 106.824 9.54542 113.913 14.7316 116.962Z" fill="url(#paint10_linear_2259_3730)"/>
<path d="M23.0515 97.3652C21.6364 102.379 17.6872 105.494 17.6562 105.478C17.6291 105.538 15.0854 99.3127 16.8529 94.0685C18.5893 88.8707 23.3147 87.0433 23.2818 87.0239C23.2605 87.0723 24.4433 92.3843 23.0534 97.3652H23.0515Z" fill="url(#paint11_linear_2259_3730)"/>
<path d="M8.33554 102.64C12.8422 106.514 17.8541 105.368 17.8309 105.401C17.7825 105.374 15.4498 99.4868 11.4077 95.6132C7.32116 91.7279 2.38474 91.3195 2.36151 91.3485C2.30343 91.3098 3.77468 98.7435 8.33554 102.64Z" fill="url(#paint12_linear_2259_3730)"/>
<path d="M19.7603 84.9217C17.5399 89.5949 13.1532 91.9392 13.1222 91.9198C13.0874 91.976 11.6297 85.4154 14.2354 80.568C16.8023 75.7632 21.7368 74.803 21.7077 74.7817C21.6787 74.8263 21.9497 80.2796 19.7583 84.9237L19.7603 84.9217Z" fill="url(#paint13_linear_2259_3730)"/>
<path d="M4.46636 87.4693C8.2374 92.0785 13.3384 91.8462 13.3093 91.8753C13.2687 91.8404 11.962 85.6515 8.6478 81.112C5.29103 76.555 0.528839 75.2618 0.499801 75.287C0.447533 75.2405 0.64499 82.8291 4.46636 87.4693Z" fill="url(#paint14_linear_2259_3730)"/>
<path d="M18.6138 72.0713C15.6539 76.2856 10.9672 77.8072 10.942 77.782C10.8975 77.8304 10.5684 71.1053 13.9445 66.7728C17.2781 62.4772 22.2764 62.4094 22.2493 62.3823C22.2106 62.421 21.5369 67.8821 18.6138 72.0713Z" fill="url(#paint15_linear_2259_3730)"/>
<path d="M3.21152 71.839C6.12691 77.0639 11.164 77.7472 11.1311 77.7724C11.0962 77.7317 10.8504 71.3957 8.38024 66.3083C5.87525 61.1957 1.44215 59.0527 1.40924 59.074C1.36472 59.0217 0.247734 66.5754 3.21152 71.839Z" fill="url(#paint16_linear_2259_3730)"/>
<path d="M19.6922 59.136C16.0625 62.7909 11.2171 63.451 11.1958 63.422C11.1416 63.4646 11.9779 56.7375 16.0586 53.0265C20.0891 49.3464 25.0023 50.1653 24.979 50.1343C24.9326 50.1672 23.2794 55.4986 19.6922 59.1341V59.136Z" fill="url(#paint17_linear_2259_3730)"/>
<path d="M4.66484 56.1375C6.6065 61.8483 11.4229 63.426 11.3842 63.4453C11.3571 63.4008 12.205 57.0764 10.6989 51.565C9.16182 46.0246 5.22236 43.0918 5.18558 43.1073C5.14686 43.0492 2.68059 50.3803 4.66484 56.1356V56.1375Z" fill="url(#paint18_linear_2259_3730)"/>
<path d="M23.074 46.4354C18.8442 49.4418 13.991 49.2288 13.9717 49.1979C13.9078 49.2308 15.9482 42.6721 20.662 39.6754C25.3196 36.7 29.9928 38.3842 29.9753 38.3494C29.9192 38.3765 27.2535 43.4426 23.074 46.4354Z" fill="url(#paint19_linear_2259_3730)"/>
<path d="M8.91114 40.7593C9.75517 46.8088 14.1941 49.2403 14.1496 49.2538C14.1283 49.2054 16.1028 43.0514 15.6847 37.2593C15.2394 31.4343 11.9582 27.7911 11.9156 27.8007C11.8827 27.7368 8.02839 34.6594 8.91114 40.7593Z" fill="url(#paint20_linear_2259_3730)"/>
<path d="M28.837 34.2936C24.0787 36.5741 19.3668 35.4977 19.3533 35.4648C19.2797 35.49 22.561 29.2662 27.84 27.0613C33.0533 24.8699 37.3296 27.371 37.316 27.3362C37.2502 27.3536 33.5411 32.019 28.8389 34.2936H28.837Z" fill="url(#paint21_linear_2259_3730)"/>
<path d="M16.0468 26.0971C15.6693 32.3267 19.5661 35.546 19.5177 35.5537C19.5042 35.5034 22.6383 29.6746 23.4301 23.7586C24.2006 17.8059 21.7459 13.5528 21.6975 13.5567C21.6723 13.4908 16.3894 19.8133 16.0468 26.0971Z" fill="url(#paint22_linear_2259_3730)"/>
<path d="M37.0601 23.0344C31.8488 24.5289 27.4331 22.6182 27.4234 22.5853C27.3421 22.5989 31.903 16.8804 37.668 15.533C43.3613 14.1895 47.082 17.4418 47.0723 17.405C46.9968 17.4146 42.2095 21.5399 37.0601 23.0364V23.0344Z" fill="url(#paint23_linear_2259_3730)"/>
<path d="M26.1593 12.5441C24.4325 18.7814 27.6208 22.7035 27.5666 22.7035C27.5608 22.6512 31.8874 17.3063 34.0169 11.4349C36.1289 5.52473 34.677 0.783837 34.6228 0.781901C34.6054 0.71221 27.857 6.24874 26.1593 12.5441Z" fill="url(#paint24_linear_2259_3730)"/>
<path d="M93.5 153.871L93.3974 152.727C83.9233 153.584 74.4803 152.529 65.3275 149.591C56.411 146.727 48.1546 142.207 40.7887 136.154C25.5032 123.594 15.6459 105.67 13.0325 85.6862C10.8914 69.3205 11.991 54.7377 16.2963 42.3405C20.9191 29.0296 29.1542 18.6128 40.7693 11.3805L40.1615 10.4067C28.318 17.7804 19.9222 28.3985 15.2103 41.965C10.845 54.5325 9.72992 69.2914 11.8923 85.8352C14.5444 106.109 24.5469 124.297 40.057 137.04C47.5351 143.185 55.9174 147.775 64.9733 150.682C74.2731 153.669 83.8691 154.74 93.4961 153.869L93.5 153.871Z" fill="url(#paint25_linear_2259_3730)"/>
<defs>
<linearGradient id="paint0_linear_2259_3730" x1="35.3628" y1="7.51165" x2="56.3889" y2="7.51165" gradientUnits="userSpaceOnUse">
<stop stop-color="#FAA94D"/>
<stop offset="1" stop-color="#F8894B"/>
</linearGradient>
<linearGradient id="paint1_linear_2259_3730" x1="59.8359" y1="143.589" x2="78.0385" y2="143.589" gradientUnits="userSpaceOnUse">
<stop stop-color="#FAA94D"/>
<stop offset="1" stop-color="#F8894B"/>
</linearGradient>
<linearGradient id="paint2_linear_2259_3730" x1="50.04" y1="154.346" x2="82.2037" y2="154.346" gradientUnits="userSpaceOnUse">
<stop stop-color="#FAA94D"/>
<stop offset="1" stop-color="#F8894B"/>
</linearGradient>
<linearGradient id="paint3_linear_2259_3730" x1="48.0249" y1="137.44" x2="61.9155" y2="137.44" gradientUnits="userSpaceOnUse">
<stop stop-color="#FAA94D"/>
<stop offset="1" stop-color="#F8894B"/>
</linearGradient>
<linearGradient id="paint4_linear_2259_3730" x1="35.6924" y1="147.028" x2="66.9306" y2="147.028" gradientUnits="userSpaceOnUse">
<stop stop-color="#FAA94D"/>
<stop offset="1" stop-color="#F8894B"/>
</linearGradient>
<linearGradient id="paint5_linear_2259_3730" x1="37.5937" y1="129.292" x2="48.8581" y2="129.292" gradientUnits="userSpaceOnUse">
<stop stop-color="#FAA94D"/>
<stop offset="1" stop-color="#F8894B"/>
</linearGradient>
<linearGradient id="paint6_linear_2259_3730" x1="23.6626" y1="137.393" x2="53.4261" y2="137.393" gradientUnits="userSpaceOnUse">
<stop stop-color="#FAA94D"/>
<stop offset="1" stop-color="#F8894B"/>
</linearGradient>
<linearGradient id="paint7_linear_2259_3730" x1="28.7271" y1="119.467" x2="38.7593" y2="119.467" gradientUnits="userSpaceOnUse">
<stop stop-color="#FAA94D"/>
<stop offset="1" stop-color="#F8894B"/>
</linearGradient>
<linearGradient id="paint8_linear_2259_3730" x1="14.0356" y1="125.8" x2="41.767" y2="125.8" gradientUnits="userSpaceOnUse">
<stop stop-color="#FAA94D"/>
<stop offset="1" stop-color="#F8894B"/>
</linearGradient>
<linearGradient id="paint9_linear_2259_3730" x1="21.5776" y1="108.292" x2="31.3966" y2="108.292" gradientUnits="userSpaceOnUse">
<stop stop-color="#FAA94D"/>
<stop offset="1" stop-color="#F8894B"/>
</linearGradient>
<linearGradient id="paint10_linear_2259_3730" x1="6.90381" y1="112.618" x2="32.0347" y2="112.618" gradientUnits="userSpaceOnUse">
<stop stop-color="#FAA94D"/>
<stop offset="1" stop-color="#F8894B"/>
</linearGradient>
<linearGradient id="paint11_linear_2259_3730" x1="16.2285" y1="96.095" x2="26.8721" y2="96.095" gradientUnits="userSpaceOnUse">
<stop stop-color="#FAA94D"/>
<stop offset="1" stop-color="#F8894B"/>
</linearGradient>
<linearGradient id="paint12_linear_2259_3730" x1="2.35986" y1="98.3206" x2="24.3085" y2="98.3206" gradientUnits="userSpaceOnUse">
<stop stop-color="#FAA94D"/>
<stop offset="1" stop-color="#F8894B"/>
</linearGradient>
<linearGradient id="paint13_linear_2259_3730" x1="12.6846" y1="83.2057" x2="25.4858" y2="83.2057" gradientUnits="userSpaceOnUse">
<stop stop-color="#FAA94D"/>
<stop offset="1" stop-color="#F8894B"/>
</linearGradient>
<linearGradient id="paint14_linear_2259_3730" x1="0.493652" y1="83.4404" x2="18.6752" y2="83.4404" gradientUnits="userSpaceOnUse">
<stop stop-color="#FAA94D"/>
<stop offset="1" stop-color="#F8894B"/>
</linearGradient>
<linearGradient id="paint15_linear_2259_3730" x1="10.9131" y1="69.9518" x2="26.9958" y2="69.9518" gradientUnits="userSpaceOnUse">
<stop stop-color="#FAA94D"/>
<stop offset="1" stop-color="#F8894B"/>
</linearGradient>
<linearGradient id="paint16_linear_2259_3730" x1="1.1665" y1="68.2646" x2="15.3033" y2="68.2646" gradientUnits="userSpaceOnUse">
<stop stop-color="#FAA94D"/>
<stop offset="1" stop-color="#F8894B"/>
</linearGradient>
<linearGradient id="paint17_linear_2259_3730" x1="11.1934" y1="56.6369" x2="30.751" y2="56.6369" gradientUnits="userSpaceOnUse">
<stop stop-color="#FAA94D"/>
<stop offset="1" stop-color="#F8894B"/>
</linearGradient>
<linearGradient id="paint18_linear_2259_3730" x1="3.89355" y1="53.1038" x2="14.8234" y2="53.1038" gradientUnits="userSpaceOnUse">
<stop stop-color="#FAA94D"/>
<stop offset="1" stop-color="#F8894B"/>
</linearGradient>
<linearGradient id="paint19_linear_2259_3730" x1="13.9702" y1="43.4635" x2="36.6765" y2="43.4635" gradientUnits="userSpaceOnUse">
<stop stop-color="#FAA94D"/>
<stop offset="1" stop-color="#F8894B"/>
</linearGradient>
<linearGradient id="paint20_linear_2259_3730" x1="8.77979" y1="38.3452" x2="18.6582" y2="38.3452" gradientUnits="userSpaceOnUse">
<stop stop-color="#FAA94D"/>
<stop offset="1" stop-color="#F8894B"/>
</linearGradient>
<linearGradient id="paint21_linear_2259_3730" x1="19.3521" y1="30.8726" x2="44.8373" y2="30.8726" gradientUnits="userSpaceOnUse">
<stop stop-color="#FAA94D"/>
<stop offset="1" stop-color="#F8894B"/>
</linearGradient>
<linearGradient id="paint22_linear_2259_3730" x1="16.021" y1="24.3685" x2="26.7444" y2="24.3685" gradientUnits="userSpaceOnUse">
<stop stop-color="#FAA94D"/>
<stop offset="1" stop-color="#F8894B"/>
</linearGradient>
<linearGradient id="paint23_linear_2259_3730" x1="27.4224" y1="19.335" x2="55.2995" y2="19.335" gradientUnits="userSpaceOnUse">
<stop stop-color="#FAA94D"/>
<stop offset="1" stop-color="#F8894B"/>
</linearGradient>
<linearGradient id="paint24_linear_2259_3730" x1="25.646" y1="11.5566" x2="39.1428" y2="11.5566" gradientUnits="userSpaceOnUse">
<stop stop-color="#FAA94D"/>
<stop offset="1" stop-color="#F8894B"/>
</linearGradient>
<linearGradient id="paint25_linear_2259_3730" x1="10.8213" y1="81.0662" x2="128.116" y2="81.0662" gradientUnits="userSpaceOnUse">
<stop stop-color="#FAA94D"/>
<stop offset="1" stop-color="#F8894B"/>
</linearGradient>
</defs>
</svg>
