<svg width="94" height="159" viewBox="0 0 94 159" fill="none" xmlns="http://www.w3.org/2000/svg">
<path d="M53.8092 4.79503C57.9016 8.52735 58.6372 14.3852 58.6372 14.3852C58.6372 14.3852 52.7367 14.1897 48.6443 10.4574C44.552 6.72507 43.8163 0.867188 43.8163 0.867188C43.8163 0.867188 49.7168 1.06271 53.8092 4.79503Z" fill="url(#paint0_linear_2259_3772)"/>
<path d="M25.0266 142.356C21.5033 146.877 21.2904 152.216 21.3388 152.233C21.3252 152.301 28.7318 150.229 32.0576 145.243C35.3834 140.32 33.7631 135.217 33.8115 135.232C33.7921 135.281 28.5479 137.879 25.0285 142.356H25.0266Z" fill="url(#paint1_linear_2259_3772)"/>
<path d="M30.2147 158.009C23.7122 156.906 21.2885 151.989 21.2885 152.033C21.3659 152.057 28.333 150.047 34.3342 150.752C40.3973 151.49 43.9592 155.255 43.9592 155.295C44.0444 155.315 36.7869 159.14 30.2127 158.009H30.2147Z" fill="url(#paint2_linear_2259_3772)"/>
<path d="M37.8797 136.708C35.4579 141.665 36.3271 146.849 36.3716 146.857C36.3658 146.925 42.8761 143.694 45.0694 138.312C47.2685 132.993 44.7655 128.327 44.8119 128.335C44.8003 128.385 40.3014 131.792 37.8797 136.708Z" fill="url(#paint3_linear_2259_3772)"/>
<path d="M45.8206 150.955C39.5 150.975 36.2846 146.633 36.2885 146.675C36.3601 146.687 42.4658 143.586 48.2946 143.255C54.1796 142.945 58.301 145.982 58.3068 146.021C58.3881 146.027 52.2089 150.952 45.8206 150.955Z" fill="url(#paint4_linear_2259_3772)"/>
<path d="M48.9768 129.071C47.6023 134.282 49.4337 139.145 49.4743 139.147C49.4762 139.215 55.0534 134.987 56.1685 129.394C57.2971 123.861 54.039 119.765 54.0816 119.765C54.0778 119.817 50.359 123.9 48.9787 129.071H48.9768Z" fill="url(#paint5_linear_2259_3772)"/>
<path d="M59.2558 141.507C53.2236 142.6 49.3481 138.944 49.3578 138.984C49.4236 138.984 54.6368 134.95 60.183 133.63C65.7834 132.321 70.3269 134.553 70.3366 134.59C70.4121 134.582 65.3518 140.419 59.2558 141.507Z" fill="url(#paint6_linear_2259_3772)"/>
<path d="M58.2395 119.758C57.8542 125.054 60.5218 129.45 60.5606 129.445C60.5702 129.51 65.1756 124.452 65.2705 118.821C65.3847 113.247 61.5014 109.827 61.5401 109.821C61.544 109.873 58.6383 114.5 58.2414 119.758H58.2395Z" fill="url(#paint7_linear_2259_3772)"/>
<path d="M70.4352 130.047C64.798 132.149 60.4036 129.268 60.4172 129.307C60.4772 129.297 64.7631 124.487 69.9202 122.237C75.1277 119.99 79.9499 121.366 79.9634 121.401C80.0331 121.384 76.1324 127.938 70.4352 130.047Z" fill="url(#paint8_linear_2259_3772)"/>
<path d="M65.5873 109.083C66.1333 114.31 69.5074 118.116 69.5423 118.104C69.5616 118.168 73.1546 112.442 72.2873 106.932C71.4452 101.475 67.0721 98.8192 67.1089 98.8057C67.1205 98.856 65.0608 103.893 65.5873 109.083Z" fill="url(#paint9_linear_2259_3772)"/>
<path d="M79.2684 116.962C74.1404 119.995 69.3646 117.959 69.382 117.996C69.4363 117.976 72.762 112.548 77.4178 109.443C82.1219 106.332 87.0757 106.82 87.0951 106.853C87.159 106.824 84.4546 113.913 79.2684 116.962Z" fill="url(#paint10_linear_2259_3772)"/>
<path d="M70.9485 97.3652C72.3636 102.379 76.3128 105.494 76.3438 105.478C76.3709 105.538 78.9146 99.3127 77.1471 94.0685C75.4107 88.8707 70.6853 87.0433 70.7182 87.0239C70.7395 87.0723 69.5567 92.3843 70.9466 97.3652H70.9485Z" fill="url(#paint11_linear_2259_3772)"/>
<path d="M85.6645 102.64C81.1578 106.514 76.1459 105.368 76.1691 105.401C76.2175 105.374 78.5502 99.4868 82.5923 95.6132C86.6788 91.7279 91.6153 91.3195 91.6385 91.3485C91.6966 91.3098 90.2253 98.7435 85.6645 102.64Z" fill="url(#paint12_linear_2259_3772)"/>
<path d="M74.2397 84.9217C76.4601 89.5949 80.8468 91.9392 80.8778 91.9198C80.9126 91.976 82.3703 85.4154 79.7646 80.568C77.1977 75.7632 72.2632 74.803 72.2923 74.7817C72.3213 74.8263 72.0503 80.2796 74.2417 84.9237L74.2397 84.9217Z" fill="url(#paint13_linear_2259_3772)"/>
<path d="M89.5336 87.4693C85.7626 92.0785 80.6616 91.8462 80.6907 91.8753C80.7313 91.8404 82.038 85.6515 85.3522 81.112C88.709 76.555 93.4712 75.2618 93.5002 75.287C93.5525 75.2405 93.355 82.8291 89.5336 87.4693Z" fill="url(#paint14_linear_2259_3772)"/>
<path d="M75.3862 72.0713C78.3461 76.2856 83.0328 77.8072 83.058 77.782C83.1025 77.8304 83.4316 71.1053 80.0555 66.7728C76.7219 62.4772 71.7236 62.4094 71.7507 62.3823C71.7894 62.421 72.4631 67.8821 75.3862 72.0713Z" fill="url(#paint15_linear_2259_3772)"/>
<path d="M90.7885 71.839C87.8731 77.0639 82.836 77.7472 82.8689 77.7724C82.9038 77.7317 83.1496 71.3957 85.6198 66.3083C88.1247 61.1957 92.5578 59.0527 92.5908 59.074C92.6353 59.0217 93.7523 66.5754 90.7885 71.839Z" fill="url(#paint16_linear_2259_3772)"/>
<path d="M74.3078 59.136C77.9375 62.7909 82.7829 63.451 82.8042 63.422C82.8584 63.4646 82.0221 56.7375 77.9414 53.0265C73.9109 49.3464 68.9977 50.1653 69.021 50.1343C69.0674 50.1672 70.7206 55.4986 74.3078 59.1341V59.136Z" fill="url(#paint17_linear_2259_3772)"/>
<path d="M89.3352 56.1375C87.3935 61.8483 82.5771 63.426 82.6158 63.4453C82.6429 63.4008 81.795 57.0764 83.3011 51.565C84.8382 46.0246 88.7776 43.0918 88.8144 43.1073C88.8531 43.0492 91.3194 50.3803 89.3352 56.1356V56.1375Z" fill="url(#paint18_linear_2259_3772)"/>
<path d="M70.926 46.4354C75.1558 49.4418 80.009 49.2288 80.0283 49.1979C80.0922 49.2308 78.0518 42.6721 73.338 39.6754C68.6804 36.7 64.0072 38.3842 64.0247 38.3494C64.0808 38.3765 66.7465 43.4426 70.926 46.4354Z" fill="url(#paint19_linear_2259_3772)"/>
<path d="M85.0889 40.7593C84.2448 46.8088 79.8059 49.2403 79.8504 49.2538C79.8717 49.2054 77.8972 43.0514 78.3153 37.2593C78.7606 31.4343 82.0418 27.7911 82.0844 27.8007C82.1173 27.7368 85.9716 34.6594 85.0889 40.7593Z" fill="url(#paint20_linear_2259_3772)"/>
<path d="M65.163 34.2936C69.9213 36.5741 74.6332 35.4977 74.6467 35.4648C74.7203 35.49 71.439 29.2662 66.16 27.0613C60.9467 24.8699 56.6704 27.371 56.684 27.3362C56.7498 27.3536 60.4589 32.019 65.1611 34.2936H65.163Z" fill="url(#paint21_linear_2259_3772)"/>
<path d="M77.9532 26.0971C78.3307 32.3267 74.4339 35.546 74.4823 35.5537C74.4958 35.5034 71.3617 29.6746 70.5699 23.7586C69.7994 17.8059 72.2541 13.5528 72.3025 13.5567C72.3277 13.4908 77.6106 19.8133 77.9532 26.0971Z" fill="url(#paint22_linear_2259_3772)"/>
<path d="M56.9399 23.0344C62.1512 24.5289 66.5669 22.6182 66.5766 22.5853C66.6579 22.5989 62.097 16.8804 56.332 15.533C50.6387 14.1895 46.918 17.4418 46.9277 17.405C47.0032 17.4146 51.7905 21.5399 56.9399 23.0364V23.0344Z" fill="url(#paint23_linear_2259_3772)"/>
<path d="M67.8407 12.5441C69.5675 18.7814 66.3792 22.7035 66.4334 22.7035C66.4392 22.6512 62.1126 17.3063 59.9831 11.4349C57.8711 5.52473 59.323 0.783837 59.3772 0.781901C59.3946 0.71221 66.143 6.24874 67.8407 12.5441Z" fill="url(#paint24_linear_2259_3772)"/>
<path d="M0.500015 153.871L0.602615 152.727C10.0767 153.584 19.5197 152.529 28.6725 149.591C37.589 146.727 45.8454 142.207 53.2113 136.154C68.4968 123.594 78.3541 105.67 80.9675 85.6862C83.1086 69.3205 82.009 54.7377 77.7037 42.3405C73.0809 29.0296 64.8458 18.6128 53.2307 11.3805L53.8385 10.4067C65.682 17.7804 74.0778 28.3985 78.7897 41.965C83.155 54.5325 84.2701 69.2914 82.1077 85.8352C79.4556 106.109 69.4531 124.297 53.943 137.04C46.4649 143.185 38.0826 147.775 29.0267 150.682C19.7269 153.669 10.1309 154.74 0.503883 153.869L0.500015 153.871Z" fill="url(#paint25_linear_2259_3772)"/>
<defs>
<linearGradient id="paint0_linear_2259_3772" x1="58.6372" y1="7.51165" x2="37.6111" y2="7.51165" gradientUnits="userSpaceOnUse">
<stop stop-color="#FAA94D"/>
<stop offset="1" stop-color="#F8894B"/>
</linearGradient>
<linearGradient id="paint1_linear_2259_3772" x1="34.1641" y1="143.589" x2="15.9615" y2="143.589" gradientUnits="userSpaceOnUse">
<stop stop-color="#FAA94D"/>
<stop offset="1" stop-color="#F8894B"/>
</linearGradient>
<linearGradient id="paint2_linear_2259_3772" x1="43.96" y1="154.346" x2="11.7963" y2="154.346" gradientUnits="userSpaceOnUse">
<stop stop-color="#FAA94D"/>
<stop offset="1" stop-color="#F8894B"/>
</linearGradient>
<linearGradient id="paint3_linear_2259_3772" x1="45.9751" y1="137.44" x2="32.0845" y2="137.44" gradientUnits="userSpaceOnUse">
<stop stop-color="#FAA94D"/>
<stop offset="1" stop-color="#F8894B"/>
</linearGradient>
<linearGradient id="paint4_linear_2259_3772" x1="58.3076" y1="147.028" x2="27.0694" y2="147.028" gradientUnits="userSpaceOnUse">
<stop stop-color="#FAA94D"/>
<stop offset="1" stop-color="#F8894B"/>
</linearGradient>
<linearGradient id="paint5_linear_2259_3772" x1="56.4063" y1="129.292" x2="45.1419" y2="129.292" gradientUnits="userSpaceOnUse">
<stop stop-color="#FAA94D"/>
<stop offset="1" stop-color="#F8894B"/>
</linearGradient>
<linearGradient id="paint6_linear_2259_3772" x1="70.3374" y1="137.393" x2="40.5739" y2="137.393" gradientUnits="userSpaceOnUse">
<stop stop-color="#FAA94D"/>
<stop offset="1" stop-color="#F8894B"/>
</linearGradient>
<linearGradient id="paint7_linear_2259_3772" x1="65.2729" y1="119.467" x2="55.2407" y2="119.467" gradientUnits="userSpaceOnUse">
<stop stop-color="#FAA94D"/>
<stop offset="1" stop-color="#F8894B"/>
</linearGradient>
<linearGradient id="paint8_linear_2259_3772" x1="79.9644" y1="125.8" x2="52.233" y2="125.8" gradientUnits="userSpaceOnUse">
<stop stop-color="#FAA94D"/>
<stop offset="1" stop-color="#F8894B"/>
</linearGradient>
<linearGradient id="paint9_linear_2259_3772" x1="72.4224" y1="108.292" x2="62.6034" y2="108.292" gradientUnits="userSpaceOnUse">
<stop stop-color="#FAA94D"/>
<stop offset="1" stop-color="#F8894B"/>
</linearGradient>
<linearGradient id="paint10_linear_2259_3772" x1="87.0962" y1="112.618" x2="61.9653" y2="112.618" gradientUnits="userSpaceOnUse">
<stop stop-color="#FAA94D"/>
<stop offset="1" stop-color="#F8894B"/>
</linearGradient>
<linearGradient id="paint11_linear_2259_3772" x1="77.7715" y1="96.095" x2="67.1279" y2="96.095" gradientUnits="userSpaceOnUse">
<stop stop-color="#FAA94D"/>
<stop offset="1" stop-color="#F8894B"/>
</linearGradient>
<linearGradient id="paint12_linear_2259_3772" x1="91.6401" y1="98.3206" x2="69.6915" y2="98.3206" gradientUnits="userSpaceOnUse">
<stop stop-color="#FAA94D"/>
<stop offset="1" stop-color="#F8894B"/>
</linearGradient>
<linearGradient id="paint13_linear_2259_3772" x1="81.3154" y1="83.2057" x2="68.5142" y2="83.2057" gradientUnits="userSpaceOnUse">
<stop stop-color="#FAA94D"/>
<stop offset="1" stop-color="#F8894B"/>
</linearGradient>
<linearGradient id="paint14_linear_2259_3772" x1="93.5063" y1="83.4404" x2="75.3248" y2="83.4404" gradientUnits="userSpaceOnUse">
<stop stop-color="#FAA94D"/>
<stop offset="1" stop-color="#F8894B"/>
</linearGradient>
<linearGradient id="paint15_linear_2259_3772" x1="83.0869" y1="69.9518" x2="67.0042" y2="69.9518" gradientUnits="userSpaceOnUse">
<stop stop-color="#FAA94D"/>
<stop offset="1" stop-color="#F8894B"/>
</linearGradient>
<linearGradient id="paint16_linear_2259_3772" x1="92.8335" y1="68.2646" x2="78.6967" y2="68.2646" gradientUnits="userSpaceOnUse">
<stop stop-color="#FAA94D"/>
<stop offset="1" stop-color="#F8894B"/>
</linearGradient>
<linearGradient id="paint17_linear_2259_3772" x1="82.8066" y1="56.6369" x2="63.249" y2="56.6369" gradientUnits="userSpaceOnUse">
<stop stop-color="#FAA94D"/>
<stop offset="1" stop-color="#F8894B"/>
</linearGradient>
<linearGradient id="paint18_linear_2259_3772" x1="90.1064" y1="53.1038" x2="79.1766" y2="53.1038" gradientUnits="userSpaceOnUse">
<stop stop-color="#FAA94D"/>
<stop offset="1" stop-color="#F8894B"/>
</linearGradient>
<linearGradient id="paint19_linear_2259_3772" x1="80.0298" y1="43.4635" x2="57.3235" y2="43.4635" gradientUnits="userSpaceOnUse">
<stop stop-color="#FAA94D"/>
<stop offset="1" stop-color="#F8894B"/>
</linearGradient>
<linearGradient id="paint20_linear_2259_3772" x1="85.2202" y1="38.3452" x2="75.3418" y2="38.3452" gradientUnits="userSpaceOnUse">
<stop stop-color="#FAA94D"/>
<stop offset="1" stop-color="#F8894B"/>
</linearGradient>
<linearGradient id="paint21_linear_2259_3772" x1="74.6479" y1="30.8726" x2="49.1627" y2="30.8726" gradientUnits="userSpaceOnUse">
<stop stop-color="#FAA94D"/>
<stop offset="1" stop-color="#F8894B"/>
</linearGradient>
<linearGradient id="paint22_linear_2259_3772" x1="77.979" y1="24.3685" x2="67.2556" y2="24.3685" gradientUnits="userSpaceOnUse">
<stop stop-color="#FAA94D"/>
<stop offset="1" stop-color="#F8894B"/>
</linearGradient>
<linearGradient id="paint23_linear_2259_3772" x1="66.5776" y1="19.335" x2="38.7005" y2="19.335" gradientUnits="userSpaceOnUse">
<stop stop-color="#FAA94D"/>
<stop offset="1" stop-color="#F8894B"/>
</linearGradient>
<linearGradient id="paint24_linear_2259_3772" x1="68.354" y1="11.5566" x2="54.8572" y2="11.5566" gradientUnits="userSpaceOnUse">
<stop stop-color="#FAA94D"/>
<stop offset="1" stop-color="#F8894B"/>
</linearGradient>
<linearGradient id="paint25_linear_2259_3772" x1="83.1787" y1="81.0662" x2="-34.1163" y2="81.0662" gradientUnits="userSpaceOnUse">
<stop stop-color="#FAA94D"/>
<stop offset="1" stop-color="#F8894B"/>
</linearGradient>
</defs>
</svg>
