<svg width="19" height="21" viewBox="0 0 19 21" fill="none" xmlns="http://www.w3.org/2000/svg">
<path d="M1.39713 0.196777L11.5804 10.3828L1.39823 20.5692C1.20517 20.4876 1.03607 20.3448 0.922961 20.1495C0.834811 19.9972 0.788391 19.8244 0.788391 19.6484V1.11735C0.788391 0.703907 1.03929 0.349067 1.39713 0.196777ZM12.2874 11.0898L14.5894 13.3918L3.65239 19.7248L12.2874 11.0898ZM15.4864 7.89178L18.2935 9.51752C18.7715 9.79422 18.9347 10.406 18.6579 10.8839C18.5704 11.0351 18.4448 11.1608 18.2935 11.2483L15.4854 12.8738L12.9944 10.3828L15.4864 7.89178ZM3.65239 1.04078L14.5904 7.37278L12.2874 9.67582L3.65239 1.04078Z" fill="#363636"/>
</svg>
