<svg width="21" height="21" viewBox="0 0 21 21" fill="none" xmlns="http://www.w3.org/2000/svg">
<path d="M16.2834 14.8911L20.5 19.1076L19.1076 20.5L14.8911 16.2834C13.375 17.4964 11.4522 18.222 9.36102 18.222C4.46973 18.222 0.5 14.2523 0.5 9.36102C0.5 4.46973 4.46973 0.5 9.36102 0.5C14.2523 0.5 18.222 4.46973 18.222 9.36102C18.222 11.4522 17.4964 13.375 16.2834 14.8911ZM14.3081 14.1605C15.512 12.9198 16.2529 11.2273 16.2529 9.36102C16.2529 5.55324 13.1688 2.46911 9.36102 2.46911C5.55324 2.46911 2.46911 5.55324 2.46911 9.36102C2.46911 13.1688 5.55324 16.2529 9.36102 16.2529C11.2273 16.2529 12.9198 15.512 14.1605 14.3081L14.3081 14.1605Z" fill="#B8B8B8"/>
</svg>
