<svg width="22" height="22" viewBox="0 0 22 22" fill="none" xmlns="http://www.w3.org/2000/svg">
<path d="M17.0639 18.6899C15.3626 19.7686 13.345 20.3933 11.1815 20.3933C5.78927 20.3933 1.3033 16.5135 0.362793 11.3933C0.799473 9.01589 2.00047 6.90597 3.70162 5.32764L0.574813 2.20084L1.98903 0.786621L21.7881 20.5856L20.3739 21.9999L17.0639 18.6899ZM5.11675 6.74277C3.78788 7.95322 2.81895 9.56027 2.40393 11.3933C3.32137 15.4452 6.94575 18.3933 11.1815 18.3933C12.7809 18.3933 14.2932 17.9729 15.6055 17.2315L13.5772 15.2032C12.8835 15.6403 12.062 15.8933 11.1815 15.8933C8.69613 15.8933 6.68141 13.8785 6.68141 11.3933C6.68141 10.5127 6.93432 9.69117 7.37146 8.99749L5.11675 6.74277ZM12.0951 13.7211L8.85361 10.4797C8.74245 10.7627 8.68141 11.0708 8.68141 11.3933C8.68141 12.774 9.80075 13.8933 11.1815 13.8933C11.5039 13.8933 11.8121 13.8322 12.0951 13.7211ZM19.988 15.9856L18.5572 14.5548C19.2131 13.6199 19.6966 12.5517 19.9589 11.3933C19.0415 7.34125 15.4171 4.39323 11.1815 4.39323C10.3356 4.39323 9.51405 4.5108 8.73364 4.73125L7.15561 3.15322C8.40242 2.66266 9.76045 2.39323 11.1815 2.39323C16.5736 2.39323 21.0596 6.27299 22.0001 11.3933C21.6879 13.0929 20.985 14.6559 19.988 15.9856ZM10.9041 6.90164C10.9958 6.89606 11.0883 6.89323 11.1815 6.89323C13.6667 6.89323 15.6815 8.90795 15.6815 11.3933C15.6815 11.4864 15.6786 11.5789 15.6731 11.6706L10.9041 6.90164Z" fill="#BFBFBF"/>
</svg>
