<svg width="605" height="605" viewBox="0 0 605 605" fill="none" xmlns="http://www.w3.org/2000/svg">
<path d="M302.35 8.38281C340.939 8.38281 379.15 15.9951 414.802 30.7851C450.453 45.575 482.847 67.253 510.133 94.5813C537.42 121.91 559.065 154.353 573.832 190.059C588.599 225.765 596.2 264.035 596.2 302.683C596.2 341.331 588.599 379.6 573.832 415.307C559.065 451.013 537.42 483.456 510.133 510.784C482.847 538.113 450.453 559.791 414.801 574.581C379.15 589.371 340.939 596.983 302.35 596.983C263.761 596.983 225.55 589.37 189.898 574.58C154.247 559.791 121.853 538.113 94.5666 510.784C67.2801 483.456 45.6353 451.013 30.8679 415.306C16.1006 379.6 8.49998 341.331 8.5 302.683C8.50002 264.035 16.1007 225.765 30.8681 190.059C45.6354 154.353 67.2803 121.909 94.5668 94.5812C121.853 67.2529 154.247 45.5749 189.899 30.785C225.55 15.9951 263.761 8.38279 302.35 8.38281L302.35 8.38281Z" stroke="#f0f0f0" stroke-width="16" stroke-linecap="round" stroke-linejoin="round"/>
</svg>
