<svg width="72" height="73" viewBox="0 0 72 73" fill="none" xmlns="http://www.w3.org/2000/svg">
<mask id="path-1-inside-1_450_732" fill="white">
<path d="M0 0.382812H72V72.3828H0V0.382812Z"/>
</mask>
<path d="M0 0.382812H72V72.3828H0V0.382812Z" fill="white"/>
<path d="M72 71.3828H0V73.3828H72V71.3828Z" fill="#E0E0E0" mask="url(#path-1-inside-1_450_732)"/>
<path d="M35.9998 28.0495C36.7362 28.0495 37.3332 27.4525 37.3332 26.7161C37.3332 25.9798 36.7362 25.3828 35.9998 25.3828C35.2635 25.3828 34.6665 25.9798 34.6665 26.7161C34.6665 27.4525 35.2635 28.0495 35.9998 28.0495Z" stroke="#1F1F1F" stroke-width="1.5" stroke-linecap="round" stroke-linejoin="round"/>
<path d="M35.9998 37.7162C36.7362 37.7162 37.3332 37.1193 37.3332 36.3829C37.3332 35.6465 36.7362 35.0496 35.9998 35.0496C35.2635 35.0496 34.6665 35.6465 34.6665 36.3829C34.6665 37.1193 35.2635 37.7162 35.9998 37.7162Z" stroke="#1F1F1F" stroke-width="1.5" stroke-linecap="round" stroke-linejoin="round"/>
<path d="M35.9998 47.3827C36.7362 47.3827 37.3332 46.7858 37.3332 46.0494C37.3332 45.313 36.7362 44.7161 35.9998 44.7161C35.2635 44.7161 34.6665 45.313 34.6665 46.0494C34.6665 46.7858 35.2635 47.3827 35.9998 47.3827Z" stroke="#1F1F1F" stroke-width="1.5" stroke-linecap="round" stroke-linejoin="round"/>
</svg>
