<svg width="18" height="21" viewBox="0 0 18 21" fill="none" xmlns="http://www.w3.org/2000/svg">
<path d="M9.30417 15.2224C13.0043 15.2224 16.2399 16.8138 18 19.1876L16.139 20.0679C14.7067 18.3703 12.1809 17.2431 9.30417 17.2431C6.42741 17.2431 3.90169 18.3703 2.46935 20.0679L0.609131 19.1867C2.36929 16.8134 5.60449 15.2224 9.30417 15.2224ZM9.30417 0.0678711C12.094 0.0678711 14.3557 2.32952 14.3557 5.1194V8.15031C14.3557 10.8668 12.2115 13.0824 9.52331 13.1972L9.30417 13.2018C6.51428 13.2018 4.25265 10.9402 4.25265 8.15031V5.1194C4.25265 2.40294 6.39682 0.187269 9.08504 0.0725388L9.30417 0.0678711ZM9.30417 2.08848C7.69001 2.08848 6.37058 3.35027 6.2784 4.94131L6.27326 5.1194V8.15031C6.27326 9.82429 7.6302 11.1812 9.30417 11.1812C10.9183 11.1812 12.2378 9.91946 12.3299 8.32843L12.3351 8.15031V5.1194C12.3351 3.44547 10.978 2.08848 9.30417 2.08848Z" fill="#7A7A7A"/>
</svg>
