<svg width="18" height="18" viewBox="0 0 18 18" fill="none" xmlns="http://www.w3.org/2000/svg">
<path d="M2 4.38281C2 3.55438 2.67157 2.88281 3.5 2.88281C4.32843 2.88281 5 3.55438 5 4.38281C5 5.21124 4.32843 5.88281 3.5 5.88281C2.67157 5.88281 2 5.21124 2 4.38281ZM3.5 0.882812C1.567 0.882812 0 2.44981 0 4.38281C0 6.31581 1.567 7.88281 3.5 7.88281C5.433 7.88281 7 6.31581 7 4.38281C7 2.44981 5.433 0.882812 3.5 0.882812ZM9 5.38281H17V3.38281H9V5.38281ZM13 14.3828C13 13.5544 13.6716 12.8828 14.5 12.8828C15.3284 12.8828 16 13.5544 16 14.3828C16 15.2112 15.3284 15.8828 14.5 15.8828C13.6716 15.8828 13 15.2112 13 14.3828ZM14.5 10.8828C12.567 10.8828 11 12.4498 11 14.3828C11 16.3158 12.567 17.8828 14.5 17.8828C16.433 17.8828 18 16.3158 18 14.3828C18 12.4498 16.433 10.8828 14.5 10.8828ZM1 13.3828V15.3828H9V13.3828H1Z" fill="#1F1F1F"/>
</svg>
