<svg width="20" height="12" viewBox="0 0 20 12" fill="none" xmlns="http://www.w3.org/2000/svg">
<path d="M7.54486 11.69L5.76015 11.2118L6.48764 8.49681C5.3891 8.09217 4.37974 7.50314 3.49706 6.7674L1.50774 8.75669L0.201248 7.4502L2.19057 5.46091C1.09015 4.14084 0.318131 2.5374 0 0.776132L1.81818 0.445557C2.5194 4.32774 5.9158 7.27246 9.99996 7.27246C14.0841 7.27246 17.4806 4.32774 18.1818 0.445557L20 0.776132C19.6818 2.5374 18.9098 4.14084 17.8094 5.46091L19.7987 7.4502L18.4922 8.75669L16.5029 6.7674C15.6202 7.50314 14.6108 8.09217 13.5123 8.49681L14.2398 11.2118L12.4551 11.69L11.7273 8.97388C11.1659 9.07005 10.5888 9.12012 9.99996 9.12012C9.4112 9.12012 8.83399 9.07005 8.27267 8.97388L7.54486 11.69Z" fill="#7A7A7A"/>
</svg>
